{
	"asset":
	{
		"version": "2.0",
		"generator": "Unreal Engine 4.27.0 glTF Exporter 1.0.6"
	},
	"scene": 0,
	"accessors": [
		{
			"bufferView": 0,
			"count": 8676,
			"type": "SCALAR",
			"componentType": 5123
		},
		{
			"bufferView": 1,
			"count": 6788,
			"type": "VEC3",
			"componentType": 5126,
			"min": [ -0.471793324,
				-0.00600861758,
				-0.458838552
			],
			"max": [ 0.518107295,
				1.43851149,
				0.360726357
			]
		},
		{
			"bufferView": 2,
			"count": 6788,
			"type": "VEC3",
			"componentType": 5126
		},
		{
			"bufferView": 3,
			"count": 6788,
			"type": "VEC4",
			"componentType": 5126
		},
		{
			"bufferView": 4,
			"count": 6788,
			"type": "VEC2",
			"componentType": 5126
		},
		{
			"bufferView": 5,
			"count": 6788,
			"type": "VEC2",
			"componentType": 5126
		},
		{
			"bufferView": 6,
			"count": 6788,
			"type": "VEC2",
			"componentType": 5126
		}
	],
	"buffers": [
		{
			"uri": "058.bin",
			"byteLength": 451784
		}
	],
	"bufferViews": [
		{
			"buffer": 0,
			"byteLength": 17352,
			"target": 34963
		},
		{
			"buffer": 0,
			"byteLength": 81456,
			"byteOffset": 17352,
			"target": 34962
		},
		{
			"buffer": 0,
			"byteLength": 81456,
			"byteOffset": 98808,
			"target": 34962
		},
		{
			"buffer": 0,
			"byteLength": 108608,
			"byteOffset": 180264,
			"target": 34962
		},
		{
			"buffer": 0,
			"byteLength": 54304,
			"byteOffset": 288872,
			"target": 34962
		},
		{
			"buffer": 0,
			"byteLength": 54304,
			"byteOffset": 343176,
			"target": 34962
		},
		{
			"buffer": 0,
			"byteLength": 54304,
			"byteOffset": 397480,
			"target": 34962
		}
	],
	"images": [
		{
			"uri": "MI_Lowpoly_Male_58_BaseColor.png"
		},
		{
			"uri": "MI_Lowpoly_Male_58_MetallicRoughness.png"
		}
	],
	"materials": [
		{
			"name": "MI_Lowpoly_Male_58",
			"pbrMetallicRoughness":
			{
				"baseColorTexture":
				{
					"index": 0
				},
				"metallicRoughnessTexture":
				{
					"index": 1
				}
			}
		}
	],
	"meshes": [
		{
			"name": "SK_Lowpoly_Male_058_pose",
			"primitives": [
				{
					"attributes":
					{
						"POSITION": 1,
						"NORMAL": 2,
						"TANGENT": 3,
						"TEXCOORD_0": 4,
						"TEXCOORD_1": 5,
						"TEXCOORD_2": 6
					},
					"indices": 0,
					"material": 0
				}
			]
		}
	],
	"nodes": [
		{
			"name": "SK_Lowpoly_Male_058_pose_11_StaticMeshComponent0",
			"translation": [ -3.39999986,
				0.199999988,
				-3.5999999
			],
			"mesh": 0
		}
	],
	"samplers": [
		{
			"name": "MI_Lowpoly_Male_58_BaseColor",
			"minFilter": 9987,
			"magFilter": 9729
		},
		{
			"name": "MI_Lowpoly_Male_58_MetallicRoughness",
			"minFilter": 9987,
			"magFilter": 9729
		}
	],
	"scenes": [
		{
			"name": "Untitled_1",
			"nodes": [ 0 ]
		}
	],
	"textures": [
		{
			"name": "MI_Lowpoly_Male_58_BaseColor",
			"sampler": 0,
			"source": 0
		},
		{
			"name": "MI_Lowpoly_Male_58_MetallicRoughness",
			"sampler": 1,
			"source": 1
		}
	]
}