{
	"asset":
	{
		"version": "2.0",
		"generator": "Unreal Engine 4.27.0 glTF Exporter 1.0.6"
	},
	"scene": 0,
	"accessors": [
		{
			"bufferView": 0,
			"count": 48708,
			"type": "SCALAR",
			"componentType": 5123
		},
		{
			"bufferView": 1,
			"count": 12966,
			"type": "VEC3",
			"componentType": 5126,
			"min": [ -0.446497262,
				0.00627199328,
				-1.18994629
			],
			"max": [ 0.818772018,
				1.67579877,
				0.446833402
			]
		},
		{
			"bufferView": 2,
			"count": 12966,
			"type": "VEC3",
			"componentType": 5126
		},
		{
			"bufferView": 3,
			"count": 12966,
			"type": "VEC4",
			"componentType": 5126
		},
		{
			"bufferView": 4,
			"count": 12966,
			"type": "VEC2",
			"componentType": 5126
		},
		{
			"bufferView": 5,
			"count": 12966,
			"type": "VEC2",
			"componentType": 5126
		},
		{
			"bufferView": 6,
			"count": 32073,
			"type": "SCALAR",
			"componentType": 5123
		},
		{
			"bufferView": 7,
			"count": 7919,
			"type": "VEC3",
			"componentType": 5126,
			"min": [ -0.448158383,
				0.0055146073,
				-1.19120085
			],
			"max": [ 0.820666254,
				1.67783058,
				0.447535306
			]
		},
		{
			"bufferView": 8,
			"count": 7919,
			"type": "VEC3",
			"componentType": 5126
		},
		{
			"bufferView": 9,
			"count": 7919,
			"type": "VEC4",
			"componentType": 5126
		},
		{
			"bufferView": 10,
			"count": 7919,
			"type": "VEC2",
			"componentType": 5126
		},
		{
			"bufferView": 11,
			"count": 7919,
			"type": "VEC2",
			"componentType": 5126
		}
	],
	"buffers": [
		{
			"uri": "SK_Cartoon_Female_019_pose.bin",
			"byteLength": 1331124
		}
	],
	"bufferViews": [
		{
			"buffer": 0,
			"byteLength": 97416,
			"target": 34963
		},
		{
			"buffer": 0,
			"byteLength": 155592,
			"byteOffset": 97416,
			"target": 34962
		},
		{
			"buffer": 0,
			"byteLength": 155592,
			"byteOffset": 253008,
			"target": 34962
		},
		{
			"buffer": 0,
			"byteLength": 207456,
			"byteOffset": 408600,
			"target": 34962
		},
		{
			"buffer": 0,
			"byteLength": 103728,
			"byteOffset": 616056,
			"target": 34962
		},
		{
			"buffer": 0,
			"byteLength": 103728,
			"byteOffset": 719784,
			"target": 34962
		},
		{
			"buffer": 0,
			"byteLength": 64146,
			"byteOffset": 823512,
			"target": 34963
		},
		{
			"buffer": 0,
			"byteLength": 95028,
			"byteOffset": 887660,
			"target": 34962
		},
		{
			"buffer": 0,
			"byteLength": 95028,
			"byteOffset": 982688,
			"target": 34962
		},
		{
			"buffer": 0,
			"byteLength": 126704,
			"byteOffset": 1077716,
			"target": 34962
		},
		{
			"buffer": 0,
			"byteLength": 63352,
			"byteOffset": 1204420,
			"target": 34962
		},
		{
			"buffer": 0,
			"byteLength": 63352,
			"byteOffset": 1267772,
			"target": 34962
		}
	],
	"images": [
		{
			"uri": "SK_Cartoon_Female_019.png"
		}
	],
	"materials": [
		{
			"name": "MI_Cartoon_Female_019",
			"pbrMetallicRoughness":
			{
				"baseColorTexture":
				{
					"index": 0
				}
			},
			"alphaMode": "MASK",
			"alphaCutoff": 0.333299994,
			"extensions":
			{
				"KHR_materials_unlit":
				{
				}
			}
		},
		{
			"name": "NewMaterial",
			"pbrMetallicRoughness":
			{
				"baseColorFactor": [ 0,
					0,
					0,
					1
				]
			},
			"extensions":
			{
				"KHR_materials_unlit":
				{
				}
			}
		}
	],
	"meshes": [
		{
			"name": "SK_Cartoon_Female_019_pose",
			"primitives": [
				{
					"attributes":
					{
						"POSITION": 1,
						"NORMAL": 2,
						"TANGENT": 3,
						"TEXCOORD_0": 4,
						"TEXCOORD_1": 5
					},
					"indices": 0,
					"material": 0
				},
				{
					"attributes":
					{
						"POSITION": 7,
						"NORMAL": 8,
						"TANGENT": 9,
						"TEXCOORD_0": 10,
						"TEXCOORD_1": 11
					},
					"indices": 6,
					"material": 1
				}
			]
		}
	],
	"nodes": [
		{
			"mesh": 0
		}
	],
	"samplers": [
		{
			"name": "SK_Cartoon_Female_019",
			"minFilter": 9987,
			"magFilter": 9729
		}
	],
	"scenes": [
		{
			"nodes": [ 0 ]
		}
	],
	"textures": [
		{
			"name": "SK_Cartoon_Female_019",
			"sampler": 0,
			"source": 0
		}
	],
	"extensionsUsed": [
		"KHR_materials_unlit"
	]
}