{
	"asset":
	{
		"version": "2.0",
		"generator": "Unreal Engine 4.27.0 glTF Exporter 1.0.6"
	},
	"scene": 0,
	"accessors": [
		{
			"bufferView": 0,
			"count": 81486,
			"type": "SCALAR",
			"componentType": 5123
		},
		{
			"bufferView": 1,
			"count": 21048,
			"type": "VEC3",
			"componentType": 5126,
			"min": [ -0.448158383,
				0.0055146073,
				-1.19120085
			],
			"max": [ 0.820666254,
				1.67783058,
				0.447535306
			]
		},
		{
			"bufferView": 2,
			"count": 21048,
			"type": "VEC3",
			"componentType": 5126
		},
		{
			"bufferView": 3,
			"count": 21048,
			"type": "VEC4",
			"componentType": 5126
		},
		{
			"bufferView": 4,
			"count": 21048,
			"type": "VEC2",
			"componentType": 5126
		},
		{
			"bufferView": 5,
			"count": 21048,
			"type": "VEC2",
			"componentType": 5126
		},
		{
			"bufferView": 6,
			"count": 0,
			"type": "VEC3",
			"componentType": 5126
		},
		{
			"bufferView": 7,
			"count": 0,
			"type": "VEC3",
			"componentType": 5126
		},
		{
			"bufferView": 8,
			"count": 0,
			"type": "VEC4",
			"componentType": 5126
		},
		{
			"bufferView": 9,
			"count": 0,
			"type": "VEC2",
			"componentType": 5126
		},
		{
			"bufferView": 10,
			"count": 0,
			"type": "VEC2",
			"componentType": 5126
		}
	],
	"buffers": [
		{
			"uri": "SK_Cartoon_19.bin",
			"byteLength": 1341660
		}
	],
	"bufferViews": [
		{
			"buffer": 0,
			"byteLength": 162972,
			"target": 34963
		},
		{
			"buffer": 0,
			"byteLength": 252576,
			"byteOffset": 162972,
			"target": 34962
		},
		{
			"buffer": 0,
			"byteLength": 252576,
			"byteOffset": 415548,
			"target": 34962
		},
		{
			"buffer": 0,
			"byteLength": 336768,
			"byteOffset": 668124,
			"target": 34962
		},
		{
			"buffer": 0,
			"byteLength": 168384,
			"byteOffset": 1004892,
			"target": 34962
		},
		{
			"buffer": 0,
			"byteLength": 168384,
			"byteOffset": 1173276,
			"target": 34962
		},
		{
			"buffer": 0,
			"byteLength": 0,
			"byteOffset": 1341660,
			"target": 34962
		},
		{
			"buffer": 0,
			"byteLength": 0,
			"byteOffset": 1341660,
			"target": 34962
		},
		{
			"buffer": 0,
			"byteLength": 0,
			"byteOffset": 1341660,
			"target": 34962
		},
		{
			"buffer": 0,
			"byteLength": 0,
			"byteOffset": 1341660,
			"target": 34962
		},
		{
			"buffer": 0,
			"byteLength": 0,
			"byteOffset": 1341660,
			"target": 34962
		}
	],
	"images": [
		{
			"uri": "SK_Cartoon_Female_019.png"
		}
	],
	"materials": [
		{
			"name": "MI_Cartoon_Female_019",
			"pbrMetallicRoughness":
			{
				"baseColorTexture":
				{
					"index": 0
				}
			},
			"alphaMode": "MASK",
			"alphaCutoff": 0.333299994,
			"extensions":
			{
				"KHR_materials_unlit":
				{
				}
			}
		},
		{
			"name": "NewMaterial",
			"pbrMetallicRoughness":
			{
				"baseColorFactor": [ 0,
					0,
					0,
					1
				]
			},
			"extensions":
			{
				"KHR_materials_unlit":
				{
				}
			}
		}
	],
	"meshes": [
		{
			"name": "SK_Cartoon_Female_019_pose",
			"primitives": [
				{
					"attributes":
					{
						"POSITION": 1,
						"NORMAL": 2,
						"TANGENT": 3,
						"TEXCOORD_0": 4,
						"TEXCOORD_1": 5
					},
					"indices": 0,
					"material": 0
				},
				{
					"attributes":
					{
						"POSITION": 6,
						"NORMAL": 7,
						"TANGENT": 8,
						"TEXCOORD_0": 9,
						"TEXCOORD_1": 10
					},
					"material": 1
				}
			]
		}
	],
	"nodes": [
		{
			"name": "SK_Cartoon_Female_019_pose_29_StaticMeshComponent0",
			"mesh": 0
		}
	],
	"samplers": [
		{
			"name": "SK_Cartoon_Female_019",
			"minFilter": 9987,
			"magFilter": 9729
		}
	],
	"scenes": [
		{
			"name": "Untitled_1",
			"nodes": [ 0 ]
		}
	],
	"textures": [
		{
			"name": "SK_Cartoon_Female_019",
			"sampler": 0,
			"source": 0
		}
	],
	"extensionsUsed": [
		"KHR_materials_unlit"
	]
}