{
	"asset":
	{
		"version": "2.0",
		"generator": "Unreal Engine 4.27.0 glTF Exporter 1.0.6"
	},
	"scene": 0,
	"accessors": [
		{
			"bufferView": 0,
			"count": 44406,
			"type": "SCALAR",
			"componentType": 5123
		},
		{
			"bufferView": 1,
			"count": 11316,
			"type": "VEC3",
			"componentType": 5126,
			"min": [ -0.636639595,
				0.000279532716,
				-0.366485357
			],
			"max": [ 0.50956136,
				1.69678676,
				0.46161896
			]
		},
		{
			"bufferView": 2,
			"count": 11316,
			"type": "VEC3",
			"componentType": 5126
		},
		{
			"bufferView": 3,
			"count": 11316,
			"type": "VEC4",
			"componentType": 5126
		},
		{
			"bufferView": 4,
			"count": 11316,
			"type": "VEC2",
			"componentType": 5126
		},
		{
			"bufferView": 5,
			"count": 11316,
			"type": "VEC2",
			"componentType": 5126
		},
		{
			"bufferView": 6,
			"count": 41121,
			"type": "SCALAR",
			"componentType": 5123
		},
		{
			"bufferView": 7,
			"count": 11030,
			"type": "VEC3",
			"componentType": 5126,
			"min": [ -0.638452291,
				-0.00205704872,
				-0.36695379
			],
			"max": [ 0.511539102,
				1.69977188,
				0.463166237
			]
		},
		{
			"bufferView": 8,
			"count": 11030,
			"type": "VEC3",
			"componentType": 5126
		},
		{
			"bufferView": 9,
			"count": 11030,
			"type": "VEC4",
			"componentType": 5126
		},
		{
			"bufferView": 10,
			"count": 11030,
			"type": "VEC2",
			"componentType": 5126
		},
		{
			"bufferView": 11,
			"count": 11030,
			"type": "VEC2",
			"componentType": 5126
		}
	],
	"buffers": [
		{
			"uri": "SK_Cartoon_Female_003_Pose.bin",
			"byteLength": 1422432
		}
	],
	"bufferViews": [
		{
			"buffer": 0,
			"byteLength": 88812,
			"target": 34963
		},
		{
			"buffer": 0,
			"byteLength": 135792,
			"byteOffset": 88812,
			"target": 34962
		},
		{
			"buffer": 0,
			"byteLength": 135792,
			"byteOffset": 224604,
			"target": 34962
		},
		{
			"buffer": 0,
			"byteLength": 181056,
			"byteOffset": 360396,
			"target": 34962
		},
		{
			"buffer": 0,
			"byteLength": 90528,
			"byteOffset": 541452,
			"target": 34962
		},
		{
			"buffer": 0,
			"byteLength": 90528,
			"byteOffset": 631980,
			"target": 34962
		},
		{
			"buffer": 0,
			"byteLength": 82242,
			"byteOffset": 722508,
			"target": 34963
		},
		{
			"buffer": 0,
			"byteLength": 132360,
			"byteOffset": 804752,
			"target": 34962
		},
		{
			"buffer": 0,
			"byteLength": 132360,
			"byteOffset": 937112,
			"target": 34962
		},
		{
			"buffer": 0,
			"byteLength": 176480,
			"byteOffset": 1069472,
			"target": 34962
		},
		{
			"buffer": 0,
			"byteLength": 88240,
			"byteOffset": 1245952,
			"target": 34962
		},
		{
			"buffer": 0,
			"byteLength": 88240,
			"byteOffset": 1334192,
			"target": 34962
		}
	],
	"images": [
		{
			"uri": "SK_Cartoon_Female_003.png"
		}
	],
	"materials": [
		{
			"name": "MI_Cartoon_Female_003",
			"pbrMetallicRoughness":
			{
				"baseColorTexture":
				{
					"index": 0
				}
			},
			"alphaMode": "MASK",
			"alphaCutoff": 0.333299994,
			"extensions":
			{
				"KHR_materials_unlit":
				{
				}
			}
		},
		{
			"name": "NewMaterial",
			"pbrMetallicRoughness":
			{
				"baseColorFactor": [ 0,
					0,
					0,
					1
				]
			},
			"extensions":
			{
				"KHR_materials_unlit":
				{
				}
			}
		}
	],
	"meshes": [
		{
			"name": "SK_Cartoon_Female_003_Pose",
			"primitives": [
				{
					"attributes":
					{
						"POSITION": 1,
						"NORMAL": 2,
						"TANGENT": 3,
						"TEXCOORD_0": 4,
						"TEXCOORD_1": 5
					},
					"indices": 0,
					"material": 0
				},
				{
					"attributes":
					{
						"POSITION": 7,
						"NORMAL": 8,
						"TANGENT": 9,
						"TEXCOORD_0": 10,
						"TEXCOORD_1": 11
					},
					"indices": 6,
					"material": 1
				}
			]
		}
	],
	"nodes": [
		{
			"mesh": 0
		}
	],
	"samplers": [
		{
			"name": "SK_Cartoon_Female_003",
			"minFilter": 9987,
			"magFilter": 9729
		}
	],
	"scenes": [
		{
			"nodes": [ 0 ]
		}
	],
	"textures": [
		{
			"name": "SK_Cartoon_Female_003",
			"sampler": 0,
			"source": 0
		}
	],
	"extensionsUsed": [
		"KHR_materials_unlit"
	]
}