{
	"asset":
	{
		"version": "2.0",
		"generator": "Unreal Engine 4.27.0 glTF Exporter 1.0.6"
	},
	"scene": 0,
	"accessors": [
		{
			"bufferView": 0,
			"count": 85743,
			"type": "SCALAR",
			"componentType": 5123
		},
		{
			"bufferView": 1,
			"count": 22506,
			"type": "VEC3",
			"componentType": 5126,
			"min": [ -0.638452291,
				-0.00205704872,
				-0.36695379
			],
			"max": [ 0.511539102,
				1.69977188,
				0.463166237
			]
		},
		{
			"bufferView": 2,
			"count": 22506,
			"type": "VEC3",
			"componentType": 5126
		},
		{
			"bufferView": 3,
			"count": 22506,
			"type": "VEC4",
			"componentType": 5126
		},
		{
			"bufferView": 4,
			"count": 22506,
			"type": "VEC2",
			"componentType": 5126
		},
		{
			"bufferView": 5,
			"count": 22506,
			"type": "VEC2",
			"componentType": 5126
		},
		{
			"bufferView": 6,
			"count": 0,
			"type": "VEC3",
			"componentType": 5126
		},
		{
			"bufferView": 7,
			"count": 0,
			"type": "VEC3",
			"componentType": 5126
		},
		{
			"bufferView": 8,
			"count": 0,
			"type": "VEC4",
			"componentType": 5126
		},
		{
			"bufferView": 9,
			"count": 0,
			"type": "VEC2",
			"componentType": 5126
		},
		{
			"bufferView": 10,
			"count": 0,
			"type": "VEC2",
			"componentType": 5126
		}
	],
	"buffers": [
		{
			"uri": "SK_Cartoon_03.bin",
			"byteLength": 1431824
		}
	],
	"bufferViews": [
		{
			"buffer": 0,
			"byteLength": 171486,
			"target": 34963
		},
		{
			"buffer": 0,
			"byteLength": 270072,
			"byteOffset": 171488,
			"target": 34962
		},
		{
			"buffer": 0,
			"byteLength": 270072,
			"byteOffset": 441560,
			"target": 34962
		},
		{
			"buffer": 0,
			"byteLength": 360096,
			"byteOffset": 711632,
			"target": 34962
		},
		{
			"buffer": 0,
			"byteLength": 180048,
			"byteOffset": 1071728,
			"target": 34962
		},
		{
			"buffer": 0,
			"byteLength": 180048,
			"byteOffset": 1251776,
			"target": 34962
		},
		{
			"buffer": 0,
			"byteLength": 0,
			"byteOffset": 1431824,
			"target": 34962
		},
		{
			"buffer": 0,
			"byteLength": 0,
			"byteOffset": 1431824,
			"target": 34962
		},
		{
			"buffer": 0,
			"byteLength": 0,
			"byteOffset": 1431824,
			"target": 34962
		},
		{
			"buffer": 0,
			"byteLength": 0,
			"byteOffset": 1431824,
			"target": 34962
		},
		{
			"buffer": 0,
			"byteLength": 0,
			"byteOffset": 1431824,
			"target": 34962
		}
	],
	"images": [
		{
			"uri": "SK_Cartoon_Female_003.png"
		}
	],
	"materials": [
		{
			"name": "MI_Cartoon_Female_003",
			"pbrMetallicRoughness":
			{
				"baseColorTexture":
				{
					"index": 0
				}
			},
			"alphaMode": "MASK",
			"alphaCutoff": 0.333299994,
			"extensions":
			{
				"KHR_materials_unlit":
				{
				}
			}
		},
		{
			"name": "NewMaterial",
			"pbrMetallicRoughness":
			{
				"baseColorFactor": [ 0,
					0,
					0,
					1
				]
			},
			"extensions":
			{
				"KHR_materials_unlit":
				{
				}
			}
		}
	],
	"meshes": [
		{
			"name": "SK_Cartoon_Female_003_Pose",
			"primitives": [
				{
					"attributes":
					{
						"POSITION": 1,
						"NORMAL": 2,
						"TANGENT": 3,
						"TEXCOORD_0": 4,
						"TEXCOORD_1": 5
					},
					"indices": 0,
					"material": 0
				},
				{
					"attributes":
					{
						"POSITION": 6,
						"NORMAL": 7,
						"TANGENT": 8,
						"TEXCOORD_0": 9,
						"TEXCOORD_1": 10
					},
					"material": 1
				}
			]
		}
	],
	"nodes": [
		{
			"name": "SK_Cartoon_Female_003_Pose_56_StaticMeshComponent0",
			"mesh": 0
		}
	],
	"samplers": [
		{
			"name": "SK_Cartoon_Female_003",
			"minFilter": 9987,
			"magFilter": 9729
		}
	],
	"scenes": [
		{
			"name": "Untitled_1",
			"nodes": [ 0 ]
		}
	],
	"textures": [
		{
			"name": "SK_Cartoon_Female_003",
			"sampler": 0,
			"source": 0
		}
	],
	"extensionsUsed": [
		"KHR_materials_unlit"
	]
}