{
	"asset":
	{
		"version": "2.0",
		"generator": "Unreal Engine 4.27.0 glTF Exporter 1.0.6"
	},
	"scene": 0,
	"accessors": [
		{
			"bufferView": 0,
			"count": 52710,
			"type": "SCALAR",
			"componentType": 5123
		},
		{
			"bufferView": 1,
			"count": 12418,
			"type": "VEC3",
			"componentType": 5126,
			"min": [ -0.662139416,
				-0.00544178486,
				-0.535652459
			],
			"max": [ 0.555952847,
				1.68940854,
				0.282902747
			]
		},
		{
			"bufferView": 2,
			"count": 12418,
			"type": "VEC3",
			"componentType": 5126
		},
		{
			"bufferView": 3,
			"count": 12418,
			"type": "VEC4",
			"componentType": 5126
		},
		{
			"bufferView": 4,
			"count": 12418,
			"type": "VEC2",
			"componentType": 5126
		},
		{
			"bufferView": 5,
			"count": 12418,
			"type": "VEC2",
			"componentType": 5126
		},
		{
			"bufferView": 6,
			"count": 48351,
			"type": "SCALAR",
			"componentType": 5123
		},
		{
			"bufferView": 7,
			"count": 14636,
			"type": "VEC3",
			"componentType": 5126,
			"min": [ -0.664004862,
				-0.00666973693,
				-0.537285209
			],
			"max": [ 0.557779729,
				1.6910044,
				0.283013195
			]
		},
		{
			"bufferView": 8,
			"count": 14636,
			"type": "VEC3",
			"componentType": 5126
		},
		{
			"bufferView": 9,
			"count": 14636,
			"type": "VEC4",
			"componentType": 5126
		},
		{
			"bufferView": 10,
			"count": 14636,
			"type": "VEC2",
			"componentType": 5126
		},
		{
			"bufferView": 11,
			"count": 14636,
			"type": "VEC2",
			"componentType": 5126
		}
	],
	"buffers": [
		{
			"uri": "009.bin",
			"byteLength": 1717148
		}
	],
	"bufferViews": [
		{
			"buffer": 0,
			"byteLength": 105420,
			"target": 34963
		},
		{
			"buffer": 0,
			"byteLength": 149016,
			"byteOffset": 105420,
			"target": 34962
		},
		{
			"buffer": 0,
			"byteLength": 149016,
			"byteOffset": 254436,
			"target": 34962
		},
		{
			"buffer": 0,
			"byteLength": 198688,
			"byteOffset": 403452,
			"target": 34962
		},
		{
			"buffer": 0,
			"byteLength": 99344,
			"byteOffset": 602140,
			"target": 34962
		},
		{
			"buffer": 0,
			"byteLength": 99344,
			"byteOffset": 701484,
			"target": 34962
		},
		{
			"buffer": 0,
			"byteLength": 96702,
			"byteOffset": 800828,
			"target": 34963
		},
		{
			"buffer": 0,
			"byteLength": 175632,
			"byteOffset": 897532,
			"target": 34962
		},
		{
			"buffer": 0,
			"byteLength": 175632,
			"byteOffset": 1073164,
			"target": 34962
		},
		{
			"buffer": 0,
			"byteLength": 234176,
			"byteOffset": 1248796,
			"target": 34962
		},
		{
			"buffer": 0,
			"byteLength": 117088,
			"byteOffset": 1482972,
			"target": 34962
		},
		{
			"buffer": 0,
			"byteLength": 117088,
			"byteOffset": 1600060,
			"target": 34962
		}
	],
	"images": [
		{
			"uri": "SK_Cartoon_Female_009.png"
		}
	],
	"materials": [
		{
			"name": "MI_Cartoon_Female_009",
			"pbrMetallicRoughness":
			{
				"baseColorTexture":
				{
					"index": 0
				}
			},
			"alphaMode": "MASK",
			"alphaCutoff": 0.333299994,
			"extensions":
			{
				"KHR_materials_unlit":
				{
				}
			}
		},
		{
			"name": "NewMaterial",
			"pbrMetallicRoughness":
			{
				"baseColorFactor": [ 0,
					0,
					0,
					1
				]
			},
			"extensions":
			{
				"KHR_materials_unlit":
				{
				}
			}
		}
	],
	"meshes": [
		{
			"name": "SK_Cartoon_Female_009_pose",
			"primitives": [
				{
					"attributes":
					{
						"POSITION": 1,
						"NORMAL": 2,
						"TANGENT": 3,
						"TEXCOORD_0": 4,
						"TEXCOORD_1": 5
					},
					"indices": 0,
					"material": 0
				},
				{
					"attributes":
					{
						"POSITION": 7,
						"NORMAL": 8,
						"TANGENT": 9,
						"TEXCOORD_0": 10,
						"TEXCOORD_1": 11
					},
					"indices": 6,
					"material": 1
				}
			]
		}
	],
	"nodes": [
		{
			"name": "SK_Cartoon_Female_009_pose_5_StaticMeshComponent0",
			"translation": [ -3.69999981,
				0.199999988,
				-4.4000001
			],
			"mesh": 0
		}
	],
	"samplers": [
		{
			"name": "SK_Cartoon_Female_009",
			"minFilter": 9987,
			"magFilter": 9729
		}
	],
	"scenes": [
		{
			"name": "Untitled_1",
			"nodes": [ 0 ]
		}
	],
	"textures": [
		{
			"name": "SK_Cartoon_Female_009",
			"sampler": 0,
			"source": 0
		}
	],
	"extensionsUsed": [
		"KHR_materials_unlit"
	]
}