{
	"asset":
	{
		"version": "2.0",
		"generator": "Unreal Engine 4.27.0 glTF Exporter 1.0.6"
	},
	"scene": 0,
	"accessors": [
		{
			"bufferView": 0,
			"count": 33612,
			"type": "SCALAR",
			"componentType": 5123
		},
		{
			"bufferView": 1,
			"count": 10481,
			"type": "VEC3",
			"componentType": 5126,
			"min": [ -0.575493336,
				-0.00238621072,
				-0.338247776
			],
			"max": [ 0.409269124,
				1.56848228,
				0.406435817
			]
		},
		{
			"bufferView": 2,
			"count": 10481,
			"type": "VEC3",
			"componentType": 5126
		},
		{
			"bufferView": 3,
			"count": 10481,
			"type": "VEC4",
			"componentType": 5126
		},
		{
			"bufferView": 4,
			"count": 10481,
			"type": "VEC2",
			"componentType": 5126
		},
		{
			"bufferView": 5,
			"count": 10481,
			"type": "VEC2",
			"componentType": 5126
		},
		{
			"bufferView": 6,
			"count": 10481,
			"type": "VEC2",
			"componentType": 5126
		},
		{
			"bufferView": 7,
			"count": 10481,
			"type": "VEC2",
			"componentType": 5126
		},
		{
			"bufferView": 8,
			"count": 10481,
			"type": "VEC2",
			"componentType": 5126
		},
		{
			"bufferView": 9,
			"count": 39369,
			"type": "SCALAR",
			"componentType": 5123
		},
		{
			"bufferView": 10,
			"count": 12420,
			"type": "VEC3",
			"componentType": 5126,
			"min": [ -0.5721668,
				-0.000258301414,
				-0.335428834
			],
			"max": [ 0.408545226,
				1.56558478,
				0.403563678
			]
		},
		{
			"bufferView": 11,
			"count": 12420,
			"type": "VEC3",
			"componentType": 5126
		},
		{
			"bufferView": 12,
			"count": 12420,
			"type": "VEC4",
			"componentType": 5126
		},
		{
			"bufferView": 13,
			"count": 12420,
			"type": "VEC2",
			"componentType": 5126
		},
		{
			"bufferView": 14,
			"count": 12420,
			"type": "VEC2",
			"componentType": 5126
		},
		{
			"bufferView": 15,
			"count": 12420,
			"type": "VEC2",
			"componentType": 5126
		},
		{
			"bufferView": 16,
			"count": 12420,
			"type": "VEC2",
			"componentType": 5126
		},
		{
			"bufferView": 17,
			"count": 12420,
			"type": "VEC2",
			"componentType": 5126
		}
	],
	"buffers": [
		{
			"uri": "SK_Cartoon_32.bin",
			"byteLength": 1978044
		}
	],
	"bufferViews": [
		{
			"buffer": 0,
			"byteLength": 67224,
			"target": 34963
		},
		{
			"buffer": 0,
			"byteLength": 125772,
			"byteOffset": 67224,
			"target": 34962
		},
		{
			"buffer": 0,
			"byteLength": 125772,
			"byteOffset": 192996,
			"target": 34962
		},
		{
			"buffer": 0,
			"byteLength": 167696,
			"byteOffset": 318768,
			"target": 34962
		},
		{
			"buffer": 0,
			"byteLength": 83848,
			"byteOffset": 486464,
			"target": 34962
		},
		{
			"buffer": 0,
			"byteLength": 83848,
			"byteOffset": 570312,
			"target": 34962
		},
		{
			"buffer": 0,
			"byteLength": 83848,
			"byteOffset": 654160,
			"target": 34962
		},
		{
			"buffer": 0,
			"byteLength": 83848,
			"byteOffset": 738008,
			"target": 34962
		},
		{
			"buffer": 0,
			"byteLength": 83848,
			"byteOffset": 821856,
			"target": 34962
		},
		{
			"buffer": 0,
			"byteLength": 78738,
			"byteOffset": 905704,
			"target": 34963
		},
		{
			"buffer": 0,
			"byteLength": 149040,
			"byteOffset": 984444,
			"target": 34962
		},
		{
			"buffer": 0,
			"byteLength": 149040,
			"byteOffset": 1133484,
			"target": 34962
		},
		{
			"buffer": 0,
			"byteLength": 198720,
			"byteOffset": 1282524,
			"target": 34962
		},
		{
			"buffer": 0,
			"byteLength": 99360,
			"byteOffset": 1481244,
			"target": 34962
		},
		{
			"buffer": 0,
			"byteLength": 99360,
			"byteOffset": 1580604,
			"target": 34962
		},
		{
			"buffer": 0,
			"byteLength": 99360,
			"byteOffset": 1679964,
			"target": 34962
		},
		{
			"buffer": 0,
			"byteLength": 99360,
			"byteOffset": 1779324,
			"target": 34962
		},
		{
			"buffer": 0,
			"byteLength": 99360,
			"byteOffset": 1878684,
			"target": 34962
		}
	],
	"images": [
		{
			"uri": "SK_Cartoon_Female_032.png"
		}
	],
	"materials": [
		{
			"name": "NewMaterial",
			"pbrMetallicRoughness":
			{
				"baseColorFactor": [ 0,
					0,
					0,
					1
				]
			},
			"extensions":
			{
				"KHR_materials_unlit":
				{
				}
			}
		},
		{
			"name": "MI_Cartoon_Female_032",
			"pbrMetallicRoughness":
			{
				"baseColorTexture":
				{
					"index": 0
				}
			},
			"alphaMode": "MASK",
			"alphaCutoff": 0.333299994,
			"extensions":
			{
				"KHR_materials_unlit":
				{
				}
			}
		}
	],
	"meshes": [
		{
			"name": "SK_Cartoon_Female_032_pose",
			"primitives": [
				{
					"attributes":
					{
						"POSITION": 1,
						"NORMAL": 2,
						"TANGENT": 3,
						"TEXCOORD_0": 4,
						"TEXCOORD_1": 5,
						"TEXCOORD_2": 6,
						"TEXCOORD_3": 7,
						"TEXCOORD_4": 8
					},
					"indices": 0,
					"material": 0
				},
				{
					"attributes":
					{
						"POSITION": 10,
						"NORMAL": 11,
						"TANGENT": 12,
						"TEXCOORD_0": 13,
						"TEXCOORD_1": 14,
						"TEXCOORD_2": 15,
						"TEXCOORD_3": 16,
						"TEXCOORD_4": 17
					},
					"indices": 9,
					"material": 1
				}
			]
		}
	],
	"nodes": [
		{
			"name": "SK_Cartoon_Female_032_pose_38_StaticMeshComponent0",
			"mesh": 0
		}
	],
	"samplers": [
		{
			"name": "SK_Cartoon_Female_032",
			"minFilter": 9987,
			"magFilter": 9729
		}
	],
	"scenes": [
		{
			"name": "Untitled_1",
			"nodes": [ 0 ]
		}
	],
	"textures": [
		{
			"name": "SK_Cartoon_Female_032",
			"sampler": 0,
			"source": 0
		}
	],
	"extensionsUsed": [
		"KHR_materials_unlit"
	]
}