{
	"asset":
	{
		"version": "2.0",
		"generator": "Unreal Engine 4.27.0 glTF Exporter 1.0.6"
	},
	"scene": 0,
	"accessors": [
		{
			"bufferView": 0,
			"count": 51942,
			"type": "SCALAR",
			"componentType": 5123
		},
		{
			"bufferView": 1,
			"count": 17191,
			"type": "VEC3",
			"componentType": 5126,
			"min": [ -0.490232378,
				-0.0538006052,
				-0.461509496
			],
			"max": [ 0.512978792,
				1.79406357,
				0.401300788
			]
		},
		{
			"bufferView": 2,
			"count": 17191,
			"type": "VEC3",
			"componentType": 5126
		},
		{
			"bufferView": 3,
			"count": 17191,
			"type": "VEC4",
			"componentType": 5126
		},
		{
			"bufferView": 4,
			"count": 17191,
			"type": "VEC2",
			"componentType": 5126
		},
		{
			"bufferView": 5,
			"count": 17191,
			"type": "VEC2",
			"componentType": 5126
		},
		{
			"bufferView": 6,
			"count": 17191,
			"type": "VEC2",
			"componentType": 5126
		},
		{
			"bufferView": 7,
			"count": 17191,
			"type": "VEC2",
			"componentType": 5126
		},
		{
			"bufferView": 8,
			"count": 17191,
			"type": "VEC2",
			"componentType": 5126
		},
		{
			"bufferView": 9,
			"count": 17191,
			"type": "VEC2",
			"componentType": 5126
		},
		{
			"bufferView": 10,
			"count": 42600,
			"type": "SCALAR",
			"componentType": 5123
		},
		{
			"bufferView": 11,
			"count": 15022,
			"type": "VEC3",
			"componentType": 5126,
			"min": [ -0.469856262,
				-0.00582365319,
				-0.463273406
			],
			"max": [ 0.514155447,
				1.79475689,
				0.402548581
			]
		},
		{
			"bufferView": 12,
			"count": 15022,
			"type": "VEC3",
			"componentType": 5126
		},
		{
			"bufferView": 13,
			"count": 15022,
			"type": "VEC4",
			"componentType": 5126
		},
		{
			"bufferView": 14,
			"count": 15022,
			"type": "VEC2",
			"componentType": 5126
		},
		{
			"bufferView": 15,
			"count": 15022,
			"type": "VEC2",
			"componentType": 5126
		},
		{
			"bufferView": 16,
			"count": 15022,
			"type": "VEC2",
			"componentType": 5126
		},
		{
			"bufferView": 17,
			"count": 15022,
			"type": "VEC2",
			"componentType": 5126
		},
		{
			"bufferView": 18,
			"count": 15022,
			"type": "VEC2",
			"componentType": 5126
		},
		{
			"bufferView": 19,
			"count": 15022,
			"type": "VEC2",
			"componentType": 5126
		}
	],
	"buffers": [
		{
			"uri": "SK_Cartoon_20.bin",
			"byteLength": 3023828
		}
	],
	"bufferViews": [
		{
			"buffer": 0,
			"byteLength": 103884,
			"target": 34963
		},
		{
			"buffer": 0,
			"byteLength": 206292,
			"byteOffset": 103884,
			"target": 34962
		},
		{
			"buffer": 0,
			"byteLength": 206292,
			"byteOffset": 310176,
			"target": 34962
		},
		{
			"buffer": 0,
			"byteLength": 275056,
			"byteOffset": 516468,
			"target": 34962
		},
		{
			"buffer": 0,
			"byteLength": 137528,
			"byteOffset": 791524,
			"target": 34962
		},
		{
			"buffer": 0,
			"byteLength": 137528,
			"byteOffset": 929052,
			"target": 34962
		},
		{
			"buffer": 0,
			"byteLength": 137528,
			"byteOffset": 1066580,
			"target": 34962
		},
		{
			"buffer": 0,
			"byteLength": 137528,
			"byteOffset": 1204108,
			"target": 34962
		},
		{
			"buffer": 0,
			"byteLength": 137528,
			"byteOffset": 1341636,
			"target": 34962
		},
		{
			"buffer": 0,
			"byteLength": 137528,
			"byteOffset": 1479164,
			"target": 34962
		},
		{
			"buffer": 0,
			"byteLength": 85200,
			"byteOffset": 1616692,
			"target": 34963
		},
		{
			"buffer": 0,
			"byteLength": 180264,
			"byteOffset": 1701892,
			"target": 34962
		},
		{
			"buffer": 0,
			"byteLength": 180264,
			"byteOffset": 1882156,
			"target": 34962
		},
		{
			"buffer": 0,
			"byteLength": 240352,
			"byteOffset": 2062420,
			"target": 34962
		},
		{
			"buffer": 0,
			"byteLength": 120176,
			"byteOffset": 2302772,
			"target": 34962
		},
		{
			"buffer": 0,
			"byteLength": 120176,
			"byteOffset": 2422948,
			"target": 34962
		},
		{
			"buffer": 0,
			"byteLength": 120176,
			"byteOffset": 2543124,
			"target": 34962
		},
		{
			"buffer": 0,
			"byteLength": 120176,
			"byteOffset": 2663300,
			"target": 34962
		},
		{
			"buffer": 0,
			"byteLength": 120176,
			"byteOffset": 2783476,
			"target": 34962
		},
		{
			"buffer": 0,
			"byteLength": 120176,
			"byteOffset": 2903652,
			"target": 34962
		}
	],
	"images": [
		{
			"uri": "SK_Cartoon_Female_020.png"
		}
	],
	"materials": [
		{
			"name": "MI_Cartoon_Female_020",
			"pbrMetallicRoughness":
			{
				"baseColorTexture":
				{
					"index": 0
				}
			},
			"alphaMode": "MASK",
			"alphaCutoff": 0.333299994,
			"extensions":
			{
				"KHR_materials_unlit":
				{
				}
			}
		},
		{
			"name": "NewMaterial",
			"pbrMetallicRoughness":
			{
				"baseColorFactor": [ 0,
					0,
					0,
					1
				]
			},
			"extensions":
			{
				"KHR_materials_unlit":
				{
				}
			}
		}
	],
	"meshes": [
		{
			"name": "SK_Cartoon_Female_020_Pose",
			"primitives": [
				{
					"attributes":
					{
						"POSITION": 1,
						"NORMAL": 2,
						"TANGENT": 3,
						"TEXCOORD_0": 4,
						"TEXCOORD_1": 5,
						"TEXCOORD_2": 6,
						"TEXCOORD_3": 7,
						"TEXCOORD_4": 8,
						"TEXCOORD_5": 9
					},
					"indices": 0,
					"material": 0
				},
				{
					"attributes":
					{
						"POSITION": 11,
						"NORMAL": 12,
						"TANGENT": 13,
						"TEXCOORD_0": 14,
						"TEXCOORD_1": 15,
						"TEXCOORD_2": 16,
						"TEXCOORD_3": 17,
						"TEXCOORD_4": 18,
						"TEXCOORD_5": 19
					},
					"indices": 10,
					"material": 1
				}
			]
		}
	],
	"nodes": [
		{
			"name": "SK_Cartoon_Female_020_Pose_18_StaticMeshComponent0",
			"mesh": 0
		}
	],
	"samplers": [
		{
			"name": "SK_Cartoon_Female_020",
			"minFilter": 9987,
			"magFilter": 9729
		}
	],
	"scenes": [
		{
			"name": "Untitled_1",
			"nodes": [ 0 ]
		}
	],
	"textures": [
		{
			"name": "SK_Cartoon_Female_020",
			"sampler": 0,
			"source": 0
		}
	],
	"extensionsUsed": [
		"KHR_materials_unlit"
	]
}