{
	"asset":
	{
		"version": "2.0",
		"generator": "Unreal Engine 4.27.0 glTF Exporter 1.0.6"
	},
	"scene": 0,
	"accessors": [
		{
			"bufferView": 0,
			"count": 8517,
			"type": "SCALAR",
			"componentType": 5123
		},
		{
			"bufferView": 1,
			"count": 6355,
			"type": "VEC3",
			"componentType": 5126,
			"min": [ -0.588161051,
				0.00390991662,
				-0.631180465
			],
			"max": [ 0.655740499,
				1.54420102,
				0.485901147
			]
		},
		{
			"bufferView": 2,
			"count": 6355,
			"type": "VEC3",
			"componentType": 5126
		},
		{
			"bufferView": 3,
			"count": 6355,
			"type": "VEC4",
			"componentType": 5126
		},
		{
			"bufferView": 4,
			"count": 6355,
			"type": "VEC2",
			"componentType": 5126
		},
		{
			"bufferView": 5,
			"count": 6355,
			"type": "VEC2",
			"componentType": 5126
		}
	],
	"buffers": [
		{
			"uri": "046.bin",
			"byteLength": 372916
		}
	],
	"bufferViews": [
		{
			"buffer": 0,
			"byteLength": 17034,
			"target": 34963
		},
		{
			"buffer": 0,
			"byteLength": 76260,
			"byteOffset": 17036,
			"target": 34962
		},
		{
			"buffer": 0,
			"byteLength": 76260,
			"byteOffset": 93296,
			"target": 34962
		},
		{
			"buffer": 0,
			"byteLength": 101680,
			"byteOffset": 169556,
			"target": 34962
		},
		{
			"buffer": 0,
			"byteLength": 50840,
			"byteOffset": 271236,
			"target": 34962
		},
		{
			"buffer": 0,
			"byteLength": 50840,
			"byteOffset": 322076,
			"target": 34962
		}
	],
	"images": [
		{
			"uri": "MI_Lowpoly_Male_46_BaseColor.png"
		},
		{
			"uri": "MI_Lowpoly_Male_46_MetallicRoughness.png"
		}
	],
	"materials": [
		{
			"name": "MI_Lowpoly_Male_46",
			"pbrMetallicRoughness":
			{
				"baseColorTexture":
				{
					"index": 0
				},
				"metallicRoughnessTexture":
				{
					"index": 1
				}
			}
		}
	],
	"meshes": [
		{
			"name": "SK_Lowpoly_Male_046_pose",
			"primitives": [
				{
					"attributes":
					{
						"POSITION": 1,
						"NORMAL": 2,
						"TANGENT": 3,
						"TEXCOORD_0": 4,
						"TEXCOORD_1": 5
					},
					"indices": 0,
					"material": 0
				}
			]
		}
	],
	"nodes": [
		{
			"name": "SK_Lowpoly_Male_046_pose_5_StaticMeshComponent0",
			"translation": [ -3.0999999,
				0.199999988,
				-3
			],
			"mesh": 0
		}
	],
	"samplers": [
		{
			"name": "MI_Lowpoly_Male_46_BaseColor",
			"minFilter": 9987,
			"magFilter": 9729
		},
		{
			"name": "MI_Lowpoly_Male_46_MetallicRoughness",
			"minFilter": 9987,
			"magFilter": 9729
		}
	],
	"scenes": [
		{
			"name": "Untitled_1",
			"nodes": [ 0 ]
		}
	],
	"textures": [
		{
			"name": "MI_Lowpoly_Male_46_BaseColor",
			"sampler": 0,
			"source": 0
		},
		{
			"name": "MI_Lowpoly_Male_46_MetallicRoughness",
			"sampler": 1,
			"source": 1
		}
	]
}