{
	"asset":
	{
		"version": "2.0",
		"generator": "Unreal Engine 4.27.0 glTF Exporter 1.0.6"
	},
	"scene": 0,
	"accessors": [
		{
			"bufferView": 0,
			"count": 8904,
			"type": "SCALAR",
			"componentType": 5123
		},
		{
			"bufferView": 1,
			"count": 6324,
			"type": "VEC3",
			"componentType": 5126,
			"min": [ -0.719172895,
				-0.000680168683,
				-0.382708192
			],
			"max": [ 0.518197834,
				1.4413079,
				0.349638581
			]
		},
		{
			"bufferView": 2,
			"count": 6324,
			"type": "VEC3",
			"componentType": 5126
		},
		{
			"bufferView": 3,
			"count": 6324,
			"type": "VEC4",
			"componentType": 5126
		},
		{
			"bufferView": 4,
			"count": 6324,
			"type": "VEC2",
			"componentType": 5126
		},
		{
			"bufferView": 5,
			"count": 6324,
			"type": "VEC2",
			"componentType": 5126
		},
		{
			"bufferView": 6,
			"count": 6324,
			"type": "VEC2",
			"componentType": 5126
		}
	],
	"buffers": [
		{
			"uri": "SK_Lowpoly_31.bin",
			"byteLength": 422544
		}
	],
	"bufferViews": [
		{
			"buffer": 0,
			"byteLength": 17808,
			"target": 34963
		},
		{
			"buffer": 0,
			"byteLength": 75888,
			"byteOffset": 17808,
			"target": 34962
		},
		{
			"buffer": 0,
			"byteLength": 75888,
			"byteOffset": 93696,
			"target": 34962
		},
		{
			"buffer": 0,
			"byteLength": 101184,
			"byteOffset": 169584,
			"target": 34962
		},
		{
			"buffer": 0,
			"byteLength": 50592,
			"byteOffset": 270768,
			"target": 34962
		},
		{
			"buffer": 0,
			"byteLength": 50592,
			"byteOffset": 321360,
			"target": 34962
		},
		{
			"buffer": 0,
			"byteLength": 50592,
			"byteOffset": 371952,
			"target": 34962
		}
	],
	"images": [
		{
			"uri": "MI_Lowpoly_Male_31_BaseColor.png"
		},
		{
			"uri": "MI_Lowpoly_Male_31_MetallicRoughness.png"
		}
	],
	"materials": [
		{
			"name": "MI_Lowpoly_Male_31",
			"pbrMetallicRoughness":
			{
				"baseColorTexture":
				{
					"index": 0
				},
				"metallicRoughnessTexture":
				{
					"index": 1
				}
			}
		}
	],
	"meshes": [
		{
			"name": "SK_Lowpoly_Male_031_Pose",
			"primitives": [
				{
					"attributes":
					{
						"POSITION": 1,
						"NORMAL": 2,
						"TANGENT": 3,
						"TEXCOORD_0": 4,
						"TEXCOORD_1": 5,
						"TEXCOORD_2": 6
					},
					"indices": 0,
					"material": 0
				}
			]
		}
	],
	"nodes": [
		{
			"name": "SK_Lowpoly_Male_031_Pose_20_StaticMeshComponent0",
			"mesh": 0
		}
	],
	"samplers": [
		{
			"name": "MI_Lowpoly_Male_31_BaseColor",
			"minFilter": 9987,
			"magFilter": 9729
		},
		{
			"name": "MI_Lowpoly_Male_31_MetallicRoughness",
			"minFilter": 9987,
			"magFilter": 9729
		}
	],
	"scenes": [
		{
			"name": "Untitled_1",
			"nodes": [ 0 ]
		}
	],
	"textures": [
		{
			"name": "MI_Lowpoly_Male_31_BaseColor",
			"sampler": 0,
			"source": 0
		},
		{
			"name": "MI_Lowpoly_Male_31_MetallicRoughness",
			"sampler": 1,
			"source": 1
		}
	]
}