{
	"asset":
	{
		"version": "2.0",
		"generator": "Unreal Engine 4.27.0 glTF Exporter 1.0.6"
	},
	"scene": 0,
	"accessors": [
		{
			"bufferView": 0,
			"count": 6972,
			"type": "SCALAR",
			"componentType": 5123
		},
		{
			"bufferView": 1,
			"count": 5292,
			"type": "VEC3",
			"componentType": 5126,
			"min": [ -0.47276336,
				-0.00374386157,
				-0.396521151
			],
			"max": [ 0.557993412,
				1.66657817,
				0.256513715
			]
		},
		{
			"bufferView": 2,
			"count": 5292,
			"type": "VEC3",
			"componentType": 5126
		},
		{
			"bufferView": 3,
			"count": 5292,
			"type": "VEC4",
			"componentType": 5126
		},
		{
			"bufferView": 4,
			"count": 5292,
			"type": "VEC2",
			"componentType": 5126
		},
		{
			"bufferView": 5,
			"count": 5292,
			"type": "VEC2",
			"componentType": 5126
		},
		{
			"bufferView": 6,
			"count": 5292,
			"type": "VEC2",
			"componentType": 5126
		}
	],
	"buffers": [
		{
			"uri": "044.bin",
			"byteLength": 352632
		}
	],
	"bufferViews": [
		{
			"buffer": 0,
			"byteLength": 13944,
			"target": 34963
		},
		{
			"buffer": 0,
			"byteLength": 63504,
			"byteOffset": 13944,
			"target": 34962
		},
		{
			"buffer": 0,
			"byteLength": 63504,
			"byteOffset": 77448,
			"target": 34962
		},
		{
			"buffer": 0,
			"byteLength": 84672,
			"byteOffset": 140952,
			"target": 34962
		},
		{
			"buffer": 0,
			"byteLength": 42336,
			"byteOffset": 225624,
			"target": 34962
		},
		{
			"buffer": 0,
			"byteLength": 42336,
			"byteOffset": 267960,
			"target": 34962
		},
		{
			"buffer": 0,
			"byteLength": 42336,
			"byteOffset": 310296,
			"target": 34962
		}
	],
	"images": [
		{
			"uri": "MI_Lowpoly_Male_44_BaseColor.png"
		},
		{
			"uri": "MI_Lowpoly_Male_44_MetallicRoughness.png"
		}
	],
	"materials": [
		{
			"name": "MI_Lowpoly_Male_44",
			"pbrMetallicRoughness":
			{
				"baseColorTexture":
				{
					"index": 0
				},
				"metallicRoughnessTexture":
				{
					"index": 1
				}
			}
		}
	],
	"meshes": [
		{
			"name": "SK_Lowpoly_Male_044_pose",
			"primitives": [
				{
					"attributes":
					{
						"POSITION": 1,
						"NORMAL": 2,
						"TANGENT": 3,
						"TEXCOORD_0": 4,
						"TEXCOORD_1": 5,
						"TEXCOORD_2": 6
					},
					"indices": 0,
					"material": 0
				}
			]
		}
	],
	"nodes": [
		{
			"name": "SK_Lowpoly_Male_044_pose_2_StaticMeshComponent0",
			"translation": [ -2.79999995,
				0.199999988,
				-2.5999999
			],
			"mesh": 0
		}
	],
	"samplers": [
		{
			"name": "MI_Lowpoly_Male_44_BaseColor",
			"minFilter": 9987,
			"magFilter": 9729
		},
		{
			"name": "MI_Lowpoly_Male_44_MetallicRoughness",
			"minFilter": 9987,
			"magFilter": 9729
		}
	],
	"scenes": [
		{
			"name": "Untitled_1",
			"nodes": [ 0 ]
		}
	],
	"textures": [
		{
			"name": "MI_Lowpoly_Male_44_BaseColor",
			"sampler": 0,
			"source": 0
		},
		{
			"name": "MI_Lowpoly_Male_44_MetallicRoughness",
			"sampler": 1,
			"source": 1
		}
	]
}