{
	"asset":
	{
		"version": "2.0",
		"generator": "Unreal Engine 4.27.0 glTF Exporter 1.0.6"
	},
	"scene": 0,
	"accessors": [
		{
			"bufferView": 0,
			"count": 42972,
			"type": "SCALAR",
			"componentType": 5123
		},
		{
			"bufferView": 1,
			"count": 17678,
			"type": "VEC3",
			"componentType": 5126,
			"min": [ -0.457369208,
				0.00216900324,
				-0.326191515
			],
			"max": [ 0.439925045,
				1.72344315,
				0.369817913
			]
		},
		{
			"bufferView": 2,
			"count": 17678,
			"type": "VEC3",
			"componentType": 5126
		},
		{
			"bufferView": 3,
			"count": 17678,
			"type": "VEC4",
			"componentType": 5126
		},
		{
			"bufferView": 4,
			"count": 17678,
			"type": "VEC2",
			"componentType": 5126
		},
		{
			"bufferView": 5,
			"count": 17678,
			"type": "VEC2",
			"componentType": 5126
		},
		{
			"bufferView": 6,
			"count": 17678,
			"type": "VEC2",
			"componentType": 5126
		},
		{
			"bufferView": 7,
			"count": 17678,
			"type": "VEC2",
			"componentType": 5126
		},
		{
			"bufferView": 8,
			"count": 17678,
			"type": "VEC2",
			"componentType": 5126
		},
		{
			"bufferView": 9,
			"count": 17678,
			"type": "VEC2",
			"componentType": 5126
		},
		{
			"bufferView": 10,
			"count": 49704,
			"type": "SCALAR",
			"componentType": 5123
		},
		{
			"bufferView": 11,
			"count": 16358,
			"type": "VEC3",
			"componentType": 5126,
			"min": [ -0.456213713,
				0.00511211762,
				-0.32284233
			],
			"max": [ 0.438468039,
				1.8936013,
				0.366475433
			]
		},
		{
			"bufferView": 12,
			"count": 16358,
			"type": "VEC3",
			"componentType": 5126
		},
		{
			"bufferView": 13,
			"count": 16358,
			"type": "VEC4",
			"componentType": 5126
		},
		{
			"bufferView": 14,
			"count": 16358,
			"type": "VEC2",
			"componentType": 5126
		},
		{
			"bufferView": 15,
			"count": 16358,
			"type": "VEC2",
			"componentType": 5126
		},
		{
			"bufferView": 16,
			"count": 16358,
			"type": "VEC2",
			"componentType": 5126
		},
		{
			"bufferView": 17,
			"count": 16358,
			"type": "VEC2",
			"componentType": 5126
		},
		{
			"bufferView": 18,
			"count": 16358,
			"type": "VEC2",
			"componentType": 5126
		},
		{
			"bufferView": 19,
			"count": 16358,
			"type": "VEC2",
			"componentType": 5126
		}
	],
	"buffers": [
		{
			"uri": "SK_Cartoon_21.bin",
			"byteLength": 3180520
		}
	],
	"bufferViews": [
		{
			"buffer": 0,
			"byteLength": 85944,
			"target": 34963
		},
		{
			"buffer": 0,
			"byteLength": 212136,
			"byteOffset": 85944,
			"target": 34962
		},
		{
			"buffer": 0,
			"byteLength": 212136,
			"byteOffset": 298080,
			"target": 34962
		},
		{
			"buffer": 0,
			"byteLength": 282848,
			"byteOffset": 510216,
			"target": 34962
		},
		{
			"buffer": 0,
			"byteLength": 141424,
			"byteOffset": 793064,
			"target": 34962
		},
		{
			"buffer": 0,
			"byteLength": 141424,
			"byteOffset": 934488,
			"target": 34962
		},
		{
			"buffer": 0,
			"byteLength": 141424,
			"byteOffset": 1075912,
			"target": 34962
		},
		{
			"buffer": 0,
			"byteLength": 141424,
			"byteOffset": 1217336,
			"target": 34962
		},
		{
			"buffer": 0,
			"byteLength": 141424,
			"byteOffset": 1358760,
			"target": 34962
		},
		{
			"buffer": 0,
			"byteLength": 141424,
			"byteOffset": 1500184,
			"target": 34962
		},
		{
			"buffer": 0,
			"byteLength": 99408,
			"byteOffset": 1641608,
			"target": 34963
		},
		{
			"buffer": 0,
			"byteLength": 196296,
			"byteOffset": 1741016,
			"target": 34962
		},
		{
			"buffer": 0,
			"byteLength": 196296,
			"byteOffset": 1937312,
			"target": 34962
		},
		{
			"buffer": 0,
			"byteLength": 261728,
			"byteOffset": 2133608,
			"target": 34962
		},
		{
			"buffer": 0,
			"byteLength": 130864,
			"byteOffset": 2395336,
			"target": 34962
		},
		{
			"buffer": 0,
			"byteLength": 130864,
			"byteOffset": 2526200,
			"target": 34962
		},
		{
			"buffer": 0,
			"byteLength": 130864,
			"byteOffset": 2657064,
			"target": 34962
		},
		{
			"buffer": 0,
			"byteLength": 130864,
			"byteOffset": 2787928,
			"target": 34962
		},
		{
			"buffer": 0,
			"byteLength": 130864,
			"byteOffset": 2918792,
			"target": 34962
		},
		{
			"buffer": 0,
			"byteLength": 130864,
			"byteOffset": 3049656,
			"target": 34962
		}
	],
	"images": [
		{
			"uri": "SK_Cartoon_Female_021.png"
		}
	],
	"materials": [
		{
			"name": "NewMaterial",
			"pbrMetallicRoughness":
			{
				"baseColorFactor": [ 0,
					0,
					0,
					1
				]
			},
			"extensions":
			{
				"KHR_materials_unlit":
				{
				}
			}
		},
		{
			"name": "MI_Cartoon_Female_021",
			"pbrMetallicRoughness":
			{
				"baseColorTexture":
				{
					"index": 0
				}
			},
			"alphaMode": "MASK",
			"alphaCutoff": 0.333299994,
			"extensions":
			{
				"KHR_materials_unlit":
				{
				}
			}
		}
	],
	"meshes": [
		{
			"name": "SK_Cartoon_Female_021_pose",
			"primitives": [
				{
					"attributes":
					{
						"POSITION": 1,
						"NORMAL": 2,
						"TANGENT": 3,
						"TEXCOORD_0": 4,
						"TEXCOORD_1": 5,
						"TEXCOORD_2": 6,
						"TEXCOORD_3": 7,
						"TEXCOORD_4": 8,
						"TEXCOORD_5": 9
					},
					"indices": 0,
					"material": 0
				},
				{
					"attributes":
					{
						"POSITION": 11,
						"NORMAL": 12,
						"TANGENT": 13,
						"TEXCOORD_0": 14,
						"TEXCOORD_1": 15,
						"TEXCOORD_2": 16,
						"TEXCOORD_3": 17,
						"TEXCOORD_4": 18,
						"TEXCOORD_5": 19
					},
					"indices": 10,
					"material": 1
				}
			]
		}
	],
	"nodes": [
		{
			"name": "SK_Cartoon_Female_021_pose_11_StaticMeshComponent0",
			"mesh": 0
		}
	],
	"samplers": [
		{
			"name": "SK_Cartoon_Female_021",
			"minFilter": 9987,
			"magFilter": 9729
		}
	],
	"scenes": [
		{
			"name": "Untitled_1",
			"nodes": [ 0 ]
		}
	],
	"textures": [
		{
			"name": "SK_Cartoon_Female_021",
			"sampler": 0,
			"source": 0
		}
	],
	"extensionsUsed": [
		"KHR_materials_unlit"
	]
}