{
	"asset":
	{
		"version": "2.0",
		"generator": "Unreal Engine 4.27.0 glTF Exporter 1.0.6"
	},
	"scene": 0,
	"accessors": [
		{
			"bufferView": 0,
			"count": 37818,
			"type": "SCALAR",
			"componentType": 5123
		},
		{
			"bufferView": 1,
			"count": 10448,
			"type": "VEC3",
			"componentType": 5126,
			"min": [ -0.565626919,
				-0.0058204066,
				-0.572888494
			],
			"max": [ 0.460667402,
				1.66424572,
				0.412195355
			]
		},
		{
			"bufferView": 2,
			"count": 10448,
			"type": "VEC3",
			"componentType": 5126
		},
		{
			"bufferView": 3,
			"count": 10448,
			"type": "VEC4",
			"componentType": 5126
		},
		{
			"bufferView": 4,
			"count": 10448,
			"type": "VEC2",
			"componentType": 5126
		},
		{
			"bufferView": 5,
			"count": 10448,
			"type": "VEC2",
			"componentType": 5126
		},
		{
			"bufferView": 6,
			"count": 10448,
			"type": "VEC2",
			"componentType": 5126
		},
		{
			"bufferView": 7,
			"count": 10448,
			"type": "VEC2",
			"componentType": 5126
		},
		{
			"bufferView": 8,
			"count": 10448,
			"type": "VEC2",
			"componentType": 5126
		},
		{
			"bufferView": 9,
			"count": 10448,
			"type": "VEC2",
			"componentType": 5126
		},
		{
			"bufferView": 10,
			"count": 33636,
			"type": "SCALAR",
			"componentType": 5123
		},
		{
			"bufferView": 11,
			"count": 11868,
			"type": "VEC3",
			"componentType": 5126,
			"min": [ -0.567993164,
				-0.00776210846,
				-0.576889038
			],
			"max": [ 0.46471256,
				1.66490352,
				0.413928747
			]
		},
		{
			"bufferView": 12,
			"count": 11868,
			"type": "VEC3",
			"componentType": 5126
		},
		{
			"bufferView": 13,
			"count": 11868,
			"type": "VEC4",
			"componentType": 5126
		},
		{
			"bufferView": 14,
			"count": 11868,
			"type": "VEC2",
			"componentType": 5126
		},
		{
			"bufferView": 15,
			"count": 11868,
			"type": "VEC2",
			"componentType": 5126
		},
		{
			"bufferView": 16,
			"count": 11868,
			"type": "VEC2",
			"componentType": 5126
		},
		{
			"bufferView": 17,
			"count": 11868,
			"type": "VEC2",
			"componentType": 5126
		},
		{
			"bufferView": 18,
			"count": 11868,
			"type": "VEC2",
			"componentType": 5126
		},
		{
			"bufferView": 19,
			"count": 11868,
			"type": "VEC2",
			"componentType": 5126
		}
	],
	"buffers": [
		{
			"uri": "006.bin",
			"byteLength": 2106716
		}
	],
	"bufferViews": [
		{
			"buffer": 0,
			"byteLength": 75636,
			"target": 34963
		},
		{
			"buffer": 0,
			"byteLength": 125376,
			"byteOffset": 75636,
			"target": 34962
		},
		{
			"buffer": 0,
			"byteLength": 125376,
			"byteOffset": 201012,
			"target": 34962
		},
		{
			"buffer": 0,
			"byteLength": 167168,
			"byteOffset": 326388,
			"target": 34962
		},
		{
			"buffer": 0,
			"byteLength": 83584,
			"byteOffset": 493556,
			"target": 34962
		},
		{
			"buffer": 0,
			"byteLength": 83584,
			"byteOffset": 577140,
			"target": 34962
		},
		{
			"buffer": 0,
			"byteLength": 83584,
			"byteOffset": 660724,
			"target": 34962
		},
		{
			"buffer": 0,
			"byteLength": 83584,
			"byteOffset": 744308,
			"target": 34962
		},
		{
			"buffer": 0,
			"byteLength": 83584,
			"byteOffset": 827892,
			"target": 34962
		},
		{
			"buffer": 0,
			"byteLength": 83584,
			"byteOffset": 911476,
			"target": 34962
		},
		{
			"buffer": 0,
			"byteLength": 67272,
			"byteOffset": 995060,
			"target": 34963
		},
		{
			"buffer": 0,
			"byteLength": 142416,
			"byteOffset": 1062332,
			"target": 34962
		},
		{
			"buffer": 0,
			"byteLength": 142416,
			"byteOffset": 1204748,
			"target": 34962
		},
		{
			"buffer": 0,
			"byteLength": 189888,
			"byteOffset": 1347164,
			"target": 34962
		},
		{
			"buffer": 0,
			"byteLength": 94944,
			"byteOffset": 1537052,
			"target": 34962
		},
		{
			"buffer": 0,
			"byteLength": 94944,
			"byteOffset": 1631996,
			"target": 34962
		},
		{
			"buffer": 0,
			"byteLength": 94944,
			"byteOffset": 1726940,
			"target": 34962
		},
		{
			"buffer": 0,
			"byteLength": 94944,
			"byteOffset": 1821884,
			"target": 34962
		},
		{
			"buffer": 0,
			"byteLength": 94944,
			"byteOffset": 1916828,
			"target": 34962
		},
		{
			"buffer": 0,
			"byteLength": 94944,
			"byteOffset": 2011772,
			"target": 34962
		}
	],
	"images": [
		{
			"uri": "SK_Cartoon_Female_006.png"
		}
	],
	"materials": [
		{
			"name": "MI_Cartoon_Female_006",
			"pbrMetallicRoughness":
			{
				"baseColorTexture":
				{
					"index": 0
				}
			},
			"alphaMode": "MASK",
			"alphaCutoff": 0.333299994,
			"extensions":
			{
				"KHR_materials_unlit":
				{
				}
			}
		},
		{
			"name": "NewMaterial",
			"pbrMetallicRoughness":
			{
				"baseColorFactor": [ 0,
					0,
					0,
					1
				]
			},
			"extensions":
			{
				"KHR_materials_unlit":
				{
				}
			}
		}
	],
	"meshes": [
		{
			"name": "SK_Cartoon_Female_006_Pose",
			"primitives": [
				{
					"attributes":
					{
						"POSITION": 1,
						"NORMAL": 2,
						"TANGENT": 3,
						"TEXCOORD_0": 4,
						"TEXCOORD_1": 5,
						"TEXCOORD_2": 6,
						"TEXCOORD_3": 7,
						"TEXCOORD_4": 8,
						"TEXCOORD_5": 9
					},
					"indices": 0,
					"material": 0
				},
				{
					"attributes":
					{
						"POSITION": 11,
						"NORMAL": 12,
						"TANGENT": 13,
						"TEXCOORD_0": 14,
						"TEXCOORD_1": 15,
						"TEXCOORD_2": 16,
						"TEXCOORD_3": 17,
						"TEXCOORD_4": 18,
						"TEXCOORD_5": 19
					},
					"indices": 10,
					"material": 1
				}
			]
		}
	],
	"nodes": [
		{
			"name": "SK_Cartoon_Female_006_Pose_2_StaticMeshComponent0",
			"translation": [ -3.5999999,
				0.199999988,
				-4.19999981
			],
			"mesh": 0
		}
	],
	"samplers": [
		{
			"name": "SK_Cartoon_Female_006",
			"minFilter": 9987,
			"magFilter": 9729
		}
	],
	"scenes": [
		{
			"name": "Untitled_1",
			"nodes": [ 0 ]
		}
	],
	"textures": [
		{
			"name": "SK_Cartoon_Female_006",
			"sampler": 0,
			"source": 0
		}
	],
	"extensionsUsed": [
		"KHR_materials_unlit"
	]
}