{
	"asset":
	{
		"version": "2.0",
		"generator": "Unreal Engine 4.27.0 glTF Exporter 1.0.6"
	},
	"scene": 0,
	"accessors": [
		{
			"bufferView": 0,
			"count": 51942,
			"type": "SCALAR",
			"componentType": 5123
		},
		{
			"bufferView": 1,
			"count": 17187,
			"type": "VEC3",
			"componentType": 5126,
			"min": [ -0.780133724,
				-0.0121000893,
				-1.06113505
			],
			"max": [ 0.576760411,
				1.77246547,
				0.476389617
			]
		},
		{
			"bufferView": 2,
			"count": 17187,
			"type": "VEC3",
			"componentType": 5126
		},
		{
			"bufferView": 3,
			"count": 17187,
			"type": "VEC4",
			"componentType": 5126
		},
		{
			"bufferView": 4,
			"count": 17187,
			"type": "VEC2",
			"componentType": 5126
		},
		{
			"bufferView": 5,
			"count": 17187,
			"type": "VEC2",
			"componentType": 5126
		},
		{
			"bufferView": 6,
			"count": 17187,
			"type": "VEC2",
			"componentType": 5126
		},
		{
			"bufferView": 7,
			"count": 17187,
			"type": "VEC2",
			"componentType": 5126
		},
		{
			"bufferView": 8,
			"count": 17187,
			"type": "VEC2",
			"componentType": 5126
		},
		{
			"bufferView": 9,
			"count": 17187,
			"type": "VEC2",
			"componentType": 5126
		},
		{
			"bufferView": 10,
			"count": 47934,
			"type": "SCALAR",
			"componentType": 5123
		},
		{
			"bufferView": 11,
			"count": 18652,
			"type": "VEC3",
			"componentType": 5126,
			"min": [ -0.690772235,
				-0.0140732201,
				-0.980569363
			],
			"max": [ 0.543281376,
				1.7737304,
				0.477611154
			]
		},
		{
			"bufferView": 12,
			"count": 18652,
			"type": "VEC3",
			"componentType": 5126
		},
		{
			"bufferView": 13,
			"count": 18652,
			"type": "VEC4",
			"componentType": 5126
		},
		{
			"bufferView": 14,
			"count": 18652,
			"type": "VEC2",
			"componentType": 5126
		},
		{
			"bufferView": 15,
			"count": 18652,
			"type": "VEC2",
			"componentType": 5126
		},
		{
			"bufferView": 16,
			"count": 18652,
			"type": "VEC2",
			"componentType": 5126
		},
		{
			"bufferView": 17,
			"count": 18652,
			"type": "VEC2",
			"componentType": 5126
		},
		{
			"bufferView": 18,
			"count": 18652,
			"type": "VEC2",
			"componentType": 5126
		},
		{
			"bufferView": 19,
			"count": 18652,
			"type": "VEC2",
			"componentType": 5126
		}
	],
	"buffers": [
		{
			"uri": "SK_Cartoon_20.bin",
			"byteLength": 3353584
		}
	],
	"bufferViews": [
		{
			"buffer": 0,
			"byteLength": 103884,
			"target": 34963
		},
		{
			"buffer": 0,
			"byteLength": 206244,
			"byteOffset": 103884,
			"target": 34962
		},
		{
			"buffer": 0,
			"byteLength": 206244,
			"byteOffset": 310128,
			"target": 34962
		},
		{
			"buffer": 0,
			"byteLength": 274992,
			"byteOffset": 516372,
			"target": 34962
		},
		{
			"buffer": 0,
			"byteLength": 137496,
			"byteOffset": 791364,
			"target": 34962
		},
		{
			"buffer": 0,
			"byteLength": 137496,
			"byteOffset": 928860,
			"target": 34962
		},
		{
			"buffer": 0,
			"byteLength": 137496,
			"byteOffset": 1066356,
			"target": 34962
		},
		{
			"buffer": 0,
			"byteLength": 137496,
			"byteOffset": 1203852,
			"target": 34962
		},
		{
			"buffer": 0,
			"byteLength": 137496,
			"byteOffset": 1341348,
			"target": 34962
		},
		{
			"buffer": 0,
			"byteLength": 137496,
			"byteOffset": 1478844,
			"target": 34962
		},
		{
			"buffer": 0,
			"byteLength": 95868,
			"byteOffset": 1616340,
			"target": 34963
		},
		{
			"buffer": 0,
			"byteLength": 223824,
			"byteOffset": 1712208,
			"target": 34962
		},
		{
			"buffer": 0,
			"byteLength": 223824,
			"byteOffset": 1936032,
			"target": 34962
		},
		{
			"buffer": 0,
			"byteLength": 298432,
			"byteOffset": 2159856,
			"target": 34962
		},
		{
			"buffer": 0,
			"byteLength": 149216,
			"byteOffset": 2458288,
			"target": 34962
		},
		{
			"buffer": 0,
			"byteLength": 149216,
			"byteOffset": 2607504,
			"target": 34962
		},
		{
			"buffer": 0,
			"byteLength": 149216,
			"byteOffset": 2756720,
			"target": 34962
		},
		{
			"buffer": 0,
			"byteLength": 149216,
			"byteOffset": 2905936,
			"target": 34962
		},
		{
			"buffer": 0,
			"byteLength": 149216,
			"byteOffset": 3055152,
			"target": 34962
		},
		{
			"buffer": 0,
			"byteLength": 149216,
			"byteOffset": 3204368,
			"target": 34962
		}
	],
	"images": [
		{
			"uri": "SK_Cartoon_Female_020.png"
		}
	],
	"materials": [
		{
			"name": "MI_Cartoon_Female_020",
			"pbrMetallicRoughness":
			{
				"baseColorTexture":
				{
					"index": 0
				}
			},
			"alphaMode": "MASK",
			"alphaCutoff": 0.333299994,
			"extensions":
			{
				"KHR_materials_unlit":
				{
				}
			}
		},
		{
			"name": "NewMaterial",
			"pbrMetallicRoughness":
			{
				"baseColorFactor": [ 0,
					0,
					0,
					1
				]
			},
			"extensions":
			{
				"KHR_materials_unlit":
				{
				}
			}
		}
	],
	"meshes": [
		{
			"name": "SK_Cartoon_Female_020_Pose",
			"primitives": [
				{
					"attributes":
					{
						"POSITION": 1,
						"NORMAL": 2,
						"TANGENT": 3,
						"TEXCOORD_0": 4,
						"TEXCOORD_1": 5,
						"TEXCOORD_2": 6,
						"TEXCOORD_3": 7,
						"TEXCOORD_4": 8,
						"TEXCOORD_5": 9
					},
					"indices": 0,
					"material": 0
				},
				{
					"attributes":
					{
						"POSITION": 11,
						"NORMAL": 12,
						"TANGENT": 13,
						"TEXCOORD_0": 14,
						"TEXCOORD_1": 15,
						"TEXCOORD_2": 16,
						"TEXCOORD_3": 17,
						"TEXCOORD_4": 18,
						"TEXCOORD_5": 19
					},
					"indices": 10,
					"material": 1
				}
			]
		}
	],
	"nodes": [
		{
			"name": "SK_Cartoon_Female_020_Pose_32_StaticMeshComponent0",
			"mesh": 0
		}
	],
	"samplers": [
		{
			"name": "SK_Cartoon_Female_020",
			"minFilter": 9987,
			"magFilter": 9729
		}
	],
	"scenes": [
		{
			"name": "Untitled_1",
			"nodes": [ 0 ]
		}
	],
	"textures": [
		{
			"name": "SK_Cartoon_Female_020",
			"sampler": 0,
			"source": 0
		}
	],
	"extensionsUsed": [
		"KHR_materials_unlit"
	]
}