{
	"asset":
	{
		"version": "2.0",
		"generator": "Unreal Engine 4.27.0 glTF Exporter 1.0.6"
	},
	"scene": 0,
	"accessors": [
		{
			"bufferView": 0,
			"count": 8568,
			"type": "SCALAR",
			"componentType": 5123
		},
		{
			"bufferView": 1,
			"count": 6286,
			"type": "VEC3",
			"componentType": 5126,
			"min": [ -0.683515012,
				-0.000175721041,
				-0.535032988
			],
			"max": [ 0.488028884,
				1.65711045,
				0.314005643
			]
		},
		{
			"bufferView": 2,
			"count": 6286,
			"type": "VEC3",
			"componentType": 5126
		},
		{
			"bufferView": 3,
			"count": 6286,
			"type": "VEC4",
			"componentType": 5126
		},
		{
			"bufferView": 4,
			"count": 6286,
			"type": "VEC2",
			"componentType": 5126
		},
		{
			"bufferView": 5,
			"count": 6286,
			"type": "VEC2",
			"componentType": 5126
		},
		{
			"bufferView": 6,
			"count": 6286,
			"type": "VEC2",
			"componentType": 5126
		}
	],
	"buffers": [
		{
			"uri": "SK_Lowpoly_16.bin",
			"byteLength": 419440
		}
	],
	"bufferViews": [
		{
			"buffer": 0,
			"byteLength": 17136,
			"target": 34963
		},
		{
			"buffer": 0,
			"byteLength": 75432,
			"byteOffset": 17136,
			"target": 34962
		},
		{
			"buffer": 0,
			"byteLength": 75432,
			"byteOffset": 92568,
			"target": 34962
		},
		{
			"buffer": 0,
			"byteLength": 100576,
			"byteOffset": 168000,
			"target": 34962
		},
		{
			"buffer": 0,
			"byteLength": 50288,
			"byteOffset": 268576,
			"target": 34962
		},
		{
			"buffer": 0,
			"byteLength": 50288,
			"byteOffset": 318864,
			"target": 34962
		},
		{
			"buffer": 0,
			"byteLength": 50288,
			"byteOffset": 369152,
			"target": 34962
		}
	],
	"images": [
		{
			"uri": "MI_Lowpoly_Male_016_BaseColor.png"
		},
		{
			"uri": "MI_Lowpoly_Male_016_MetallicRoughness.png"
		}
	],
	"materials": [
		{
			"name": "MI_Lowpoly_Male_016",
			"pbrMetallicRoughness":
			{
				"baseColorTexture":
				{
					"index": 0
				},
				"metallicRoughnessTexture":
				{
					"index": 1
				}
			}
		}
	],
	"meshes": [
		{
			"name": "SK_Lowpoly_Male_016_Pose2",
			"primitives": [
				{
					"attributes":
					{
						"POSITION": 1,
						"NORMAL": 2,
						"TANGENT": 3,
						"TEXCOORD_0": 4,
						"TEXCOORD_1": 5,
						"TEXCOORD_2": 6
					},
					"indices": 0,
					"material": 0
				}
			]
		}
	],
	"nodes": [
		{
			"name": "SK_Lowpoly_Male_016_Pose2_4_StaticMeshComponent0",
			"mesh": 0
		}
	],
	"samplers": [
		{
			"name": "MI_Lowpoly_Male_016_BaseColor",
			"minFilter": 9987,
			"magFilter": 9729
		},
		{
			"name": "MI_Lowpoly_Male_016_MetallicRoughness",
			"minFilter": 9987,
			"magFilter": 9729
		}
	],
	"scenes": [
		{
			"name": "Untitled_1",
			"nodes": [ 0 ]
		}
	],
	"textures": [
		{
			"name": "MI_Lowpoly_Male_016_BaseColor",
			"sampler": 0,
			"source": 0
		},
		{
			"name": "MI_Lowpoly_Male_016_MetallicRoughness",
			"sampler": 1,
			"source": 1
		}
	]
}