{
	"asset":
	{
		"version": "2.0",
		"generator": "Unreal Engine 4.27.0 glTF Exporter 1.0.6"
	},
	"scene": 0,
	"accessors": [
		{
			"bufferView": 0,
			"count": 8646,
			"type": "SCALAR",
			"componentType": 5123
		},
		{
			"bufferView": 1,
			"count": 6275,
			"type": "VEC3",
			"componentType": 5126,
			"min": [ -0.434259683,
				7.8742094e-05,
				-0.399811089
			],
			"max": [ 0.439373463,
				1.30520201,
				0.636679828
			]
		},
		{
			"bufferView": 2,
			"count": 6275,
			"type": "VEC3",
			"componentType": 5126
		},
		{
			"bufferView": 3,
			"count": 6275,
			"type": "VEC4",
			"componentType": 5126
		},
		{
			"bufferView": 4,
			"count": 6275,
			"type": "VEC2",
			"componentType": 5126
		},
		{
			"bufferView": 5,
			"count": 6275,
			"type": "VEC2",
			"componentType": 5126
		}
	],
	"buffers": [
		{
			"uri": "SK_Lowpoly_Male_040.bin",
			"byteLength": 368692
		}
	],
	"bufferViews": [
		{
			"buffer": 0,
			"byteLength": 17292,
			"target": 34963
		},
		{
			"buffer": 0,
			"byteLength": 75300,
			"byteOffset": 17292,
			"target": 34962
		},
		{
			"buffer": 0,
			"byteLength": 75300,
			"byteOffset": 92592,
			"target": 34962
		},
		{
			"buffer": 0,
			"byteLength": 100400,
			"byteOffset": 167892,
			"target": 34962
		},
		{
			"buffer": 0,
			"byteLength": 50200,
			"byteOffset": 268292,
			"target": 34962
		},
		{
			"buffer": 0,
			"byteLength": 50200,
			"byteOffset": 318492,
			"target": 34962
		}
	],
	"images": [
		{
			"uri": "MI_Lowpoly_Male_040_BaseColor.png"
		},
		{
			"uri": "MI_Lowpoly_Male_040_MetallicRoughness.png"
		}
	],
	"materials": [
		{
			"name": "MI_Lowpoly_Male_040",
			"pbrMetallicRoughness":
			{
				"baseColorTexture":
				{
					"index": 0
				},
				"metallicRoughnessTexture":
				{
					"index": 1
				}
			}
		}
	],
	"meshes": [
		{
			"name": "SK_Lowpoly_Male_040",
			"primitives": [
				{
					"attributes":
					{
						"POSITION": 1,
						"NORMAL": 2,
						"TANGENT": 3,
						"TEXCOORD_0": 4,
						"TEXCOORD_1": 5
					},
					"indices": 0,
					"material": 0
				}
			]
		}
	],
	"nodes": [
		{
			"mesh": 0
		}
	],
	"samplers": [
		{
			"name": "MI_Lowpoly_Male_040_BaseColor",
			"minFilter": 9987,
			"magFilter": 9729
		},
		{
			"name": "MI_Lowpoly_Male_040_MetallicRoughness",
			"minFilter": 9987,
			"magFilter": 9729
		}
	],
	"scenes": [
		{
			"nodes": [ 0 ]
		}
	],
	"textures": [
		{
			"name": "MI_Lowpoly_Male_040_BaseColor",
			"sampler": 0,
			"source": 0
		},
		{
			"name": "MI_Lowpoly_Male_040_MetallicRoughness",
			"sampler": 1,
			"source": 1
		}
	]
}