<svg width="16" height="16" viewBox="0 0 16 16" fill="none" xmlns="http://www.w3.org/2000/svg">
<circle cx="8" cy="8" r="8" fill="white"/>
<path d="M8.17641 3.76514C6.19441 3.76891 4.58899 5.37642 4.58899 7.35928C4.58899 9.21068 6.42862 11.2464 8.17639 13.3413C8.05886 13.3345 8.26824 13.4517 8.17639 13.3413C8.08459 13.4517 8.29392 13.3345 8.17639 13.3413C9.92417 11.2464 11.7638 9.21069 11.7638 7.35928C11.7638 5.37641 10.1584 3.76891 8.17641 3.76514ZM8.17641 8.50002C7.40216 8.49582 6.7753 7.86772 6.7753 7.09261C6.7753 6.31749 7.40216 5.6894 8.17641 5.6852C8.95066 5.68939 9.57747 6.31749 9.57747 7.09261C9.57747 7.86772 8.95067 8.49581 8.17641 8.50002Z" fill="black"/>
</svg>
