{
	"asset":
	{
		"version": "2.0",
		"generator": "Unreal Engine 4.27.0 glTF Exporter 1.0.6"
	},
	"scene": 0,
	"accessors": [
		{
			"bufferView": 0,
			"count": 8616,
			"type": "SCALAR",
			"componentType": 5123
		},
		{
			"bufferView": 1,
			"count": 6320,
			"type": "VEC3",
			"componentType": 5126,
			"min": [ -0.712408483,
				0.131338939,
				-0.694633365
			],
			"max": [ 0.575729489,
				1.70627403,
				0.440196067
			]
		},
		{
			"bufferView": 2,
			"count": 6320,
			"type": "VEC3",
			"componentType": 5126
		},
		{
			"bufferView": 3,
			"count": 6320,
			"type": "VEC4",
			"componentType": 5126
		},
		{
			"bufferView": 4,
			"count": 6320,
			"type": "VEC2",
			"componentType": 5126
		},
		{
			"bufferView": 5,
			"count": 6320,
			"type": "VEC2",
			"componentType": 5126
		}
	],
	"buffers": [
		{
			"uri": "038.bin",
			"byteLength": 371152
		}
	],
	"bufferViews": [
		{
			"buffer": 0,
			"byteLength": 17232,
			"target": 34963
		},
		{
			"buffer": 0,
			"byteLength": 75840,
			"byteOffset": 17232,
			"target": 34962
		},
		{
			"buffer": 0,
			"byteLength": 75840,
			"byteOffset": 93072,
			"target": 34962
		},
		{
			"buffer": 0,
			"byteLength": 101120,
			"byteOffset": 168912,
			"target": 34962
		},
		{
			"buffer": 0,
			"byteLength": 50560,
			"byteOffset": 270032,
			"target": 34962
		},
		{
			"buffer": 0,
			"byteLength": 50560,
			"byteOffset": 320592,
			"target": 34962
		}
	],
	"images": [
		{
			"uri": "MI_Lowpoly_Male_38_BaseColor.png"
		},
		{
			"uri": "MI_Lowpoly_Male_38_MetallicRoughness.png"
		}
	],
	"materials": [
		{
			"name": "MI_Lowpoly_Male_38",
			"pbrMetallicRoughness":
			{
				"baseColorTexture":
				{
					"index": 0
				},
				"metallicRoughnessTexture":
				{
					"index": 1
				}
			}
		}
	],
	"meshes": [
		{
			"name": "SK_Lowpoly_Male_038_Pose",
			"primitives": [
				{
					"attributes":
					{
						"POSITION": 1,
						"NORMAL": 2,
						"TANGENT": 3,
						"TEXCOORD_0": 4,
						"TEXCOORD_1": 5
					},
					"indices": 0,
					"material": 0
				}
			]
		}
	],
	"nodes": [
		{
			"name": "SK_Lowpoly_Male_038_Pose_4_StaticMeshComponent0",
			"translation": [ -3.69999981,
				0.199999988,
				-3.89999986
			],
			"mesh": 0
		}
	],
	"samplers": [
		{
			"name": "MI_Lowpoly_Male_38_BaseColor",
			"minFilter": 9987,
			"magFilter": 9729
		},
		{
			"name": "MI_Lowpoly_Male_38_MetallicRoughness",
			"minFilter": 9987,
			"magFilter": 9729
		}
	],
	"scenes": [
		{
			"name": "Untitled_1",
			"nodes": [ 0 ]
		}
	],
	"textures": [
		{
			"name": "MI_Lowpoly_Male_38_BaseColor",
			"sampler": 0,
			"source": 0
		},
		{
			"name": "MI_Lowpoly_Male_38_MetallicRoughness",
			"sampler": 1,
			"source": 1
		}
	]
}