{
	"asset":
	{
		"version": "2.0",
		"generator": "Unreal Engine 4.27.0 glTF Exporter 1.0.6"
	},
	"scene": 0,
	"accessors": [
		{
			"bufferView": 0,
			"count": 8121,
			"type": "SCALAR",
			"componentType": 5123
		},
		{
			"bufferView": 1,
			"count": 5867,
			"type": "VEC3",
			"componentType": 5126,
			"min": [ -0.460431099,
				-0.00146427029,
				-0.37699458
			],
			"max": [ 0.859099567,
				1.56730008,
				0.428648293
			]
		},
		{
			"bufferView": 2,
			"count": 5867,
			"type": "VEC3",
			"componentType": 5126
		},
		{
			"bufferView": 3,
			"count": 5867,
			"type": "VEC4",
			"componentType": 5126
		},
		{
			"bufferView": 4,
			"count": 5867,
			"type": "VEC2",
			"componentType": 5126
		},
		{
			"bufferView": 5,
			"count": 5867,
			"type": "VEC2",
			"componentType": 5126
		},
		{
			"bufferView": 6,
			"count": 5867,
			"type": "VEC2",
			"componentType": 5126
		}
	],
	"buffers": [
		{
			"uri": "SK_Lowpoly_42.bin",
			"byteLength": 391732
		}
	],
	"bufferViews": [
		{
			"buffer": 0,
			"byteLength": 16242,
			"target": 34963
		},
		{
			"buffer": 0,
			"byteLength": 70404,
			"byteOffset": 16244,
			"target": 34962
		},
		{
			"buffer": 0,
			"byteLength": 70404,
			"byteOffset": 86648,
			"target": 34962
		},
		{
			"buffer": 0,
			"byteLength": 93872,
			"byteOffset": 157052,
			"target": 34962
		},
		{
			"buffer": 0,
			"byteLength": 46936,
			"byteOffset": 250924,
			"target": 34962
		},
		{
			"buffer": 0,
			"byteLength": 46936,
			"byteOffset": 297860,
			"target": 34962
		},
		{
			"buffer": 0,
			"byteLength": 46936,
			"byteOffset": 344796,
			"target": 34962
		}
	],
	"images": [
		{
			"uri": "MI_Lowpoly_Male_42_BaseColor.png"
		},
		{
			"uri": "MI_Lowpoly_Male_42_MetallicRoughness.png"
		}
	],
	"materials": [
		{
			"name": "MI_Lowpoly_Male_42",
			"pbrMetallicRoughness":
			{
				"baseColorTexture":
				{
					"index": 0
				},
				"metallicRoughnessTexture":
				{
					"index": 1
				}
			}
		}
	],
	"meshes": [
		{
			"name": "SK_Lowpoly_Male_042_pose",
			"primitives": [
				{
					"attributes":
					{
						"POSITION": 1,
						"NORMAL": 2,
						"TANGENT": 3,
						"TEXCOORD_0": 4,
						"TEXCOORD_1": 5,
						"TEXCOORD_2": 6
					},
					"indices": 0,
					"material": 0
				}
			]
		}
	],
	"nodes": [
		{
			"name": "SK_Lowpoly_Male_042_pose_93_StaticMeshComponent0",
			"mesh": 0
		}
	],
	"samplers": [
		{
			"name": "MI_Lowpoly_Male_42_BaseColor",
			"minFilter": 9987,
			"magFilter": 9729
		},
		{
			"name": "MI_Lowpoly_Male_42_MetallicRoughness",
			"minFilter": 9987,
			"magFilter": 9729
		}
	],
	"scenes": [
		{
			"name": "Untitled_1",
			"nodes": [ 0 ]
		}
	],
	"textures": [
		{
			"name": "MI_Lowpoly_Male_42_BaseColor",
			"sampler": 0,
			"source": 0
		},
		{
			"name": "MI_Lowpoly_Male_42_MetallicRoughness",
			"sampler": 1,
			"source": 1
		}
	]
}