{
	"asset":
	{
		"version": "2.0",
		"generator": "Unreal Engine 4.27.0 glTF Exporter 1.0.6"
	},
	"scene": 0,
	"accessors": [
		{
			"bufferView": 0,
			"count": 42699,
			"type": "SCALAR",
			"componentType": 5123
		},
		{
			"bufferView": 1,
			"count": 10940,
			"type": "VEC3",
			"componentType": 5126,
			"min": [ -0.6031124,
				-0.00232989551,
				-1.11207438
			],
			"max": [ 0.567318559,
				1.67174757,
				0.318882138
			]
		},
		{
			"bufferView": 2,
			"count": 10940,
			"type": "VEC3",
			"componentType": 5126
		},
		{
			"bufferView": 3,
			"count": 10940,
			"type": "VEC4",
			"componentType": 5126
		},
		{
			"bufferView": 4,
			"count": 10940,
			"type": "VEC2",
			"componentType": 5126
		},
		{
			"bufferView": 5,
			"count": 10940,
			"type": "VEC2",
			"componentType": 5126
		},
		{
			"bufferView": 6,
			"count": 38787,
			"type": "SCALAR",
			"componentType": 5123
		},
		{
			"bufferView": 7,
			"count": 10101,
			"type": "VEC3",
			"componentType": 5126,
			"min": [ -0.604664028,
				-0.00321094086,
				-1.11210775
			],
			"max": [ 0.568968713,
				1.67391431,
				0.319633693
			]
		},
		{
			"bufferView": 8,
			"count": 10101,
			"type": "VEC3",
			"componentType": 5126
		},
		{
			"bufferView": 9,
			"count": 10101,
			"type": "VEC4",
			"componentType": 5126
		},
		{
			"bufferView": 10,
			"count": 10101,
			"type": "VEC2",
			"componentType": 5126
		},
		{
			"bufferView": 11,
			"count": 10101,
			"type": "VEC2",
			"componentType": 5126
		}
	],
	"buffers": [
		{
			"uri": "SK_Cartoon_19.bin",
			"byteLength": 1341272
		}
	],
	"bufferViews": [
		{
			"buffer": 0,
			"byteLength": 85398,
			"target": 34963
		},
		{
			"buffer": 0,
			"byteLength": 131280,
			"byteOffset": 85400,
			"target": 34962
		},
		{
			"buffer": 0,
			"byteLength": 131280,
			"byteOffset": 216680,
			"target": 34962
		},
		{
			"buffer": 0,
			"byteLength": 175040,
			"byteOffset": 347960,
			"target": 34962
		},
		{
			"buffer": 0,
			"byteLength": 87520,
			"byteOffset": 523000,
			"target": 34962
		},
		{
			"buffer": 0,
			"byteLength": 87520,
			"byteOffset": 610520,
			"target": 34962
		},
		{
			"buffer": 0,
			"byteLength": 77574,
			"byteOffset": 698040,
			"target": 34963
		},
		{
			"buffer": 0,
			"byteLength": 121212,
			"byteOffset": 775616,
			"target": 34962
		},
		{
			"buffer": 0,
			"byteLength": 121212,
			"byteOffset": 896828,
			"target": 34962
		},
		{
			"buffer": 0,
			"byteLength": 161616,
			"byteOffset": 1018040,
			"target": 34962
		},
		{
			"buffer": 0,
			"byteLength": 80808,
			"byteOffset": 1179656,
			"target": 34962
		},
		{
			"buffer": 0,
			"byteLength": 80808,
			"byteOffset": 1260464,
			"target": 34962
		}
	],
	"images": [
		{
			"uri": "SK_Cartoon_Female_019.png"
		}
	],
	"materials": [
		{
			"name": "MI_Cartoon_Female_019",
			"pbrMetallicRoughness":
			{
				"baseColorTexture":
				{
					"index": 0
				}
			},
			"alphaMode": "MASK",
			"alphaCutoff": 0.333299994,
			"extensions":
			{
				"KHR_materials_unlit":
				{
				}
			}
		},
		{
			"name": "NewMaterial",
			"pbrMetallicRoughness":
			{
				"baseColorFactor": [ 0,
					0,
					0,
					1
				]
			},
			"extensions":
			{
				"KHR_materials_unlit":
				{
				}
			}
		}
	],
	"meshes": [
		{
			"name": "SK_Cartoon_Female_019",
			"primitives": [
				{
					"attributes":
					{
						"POSITION": 1,
						"NORMAL": 2,
						"TANGENT": 3,
						"TEXCOORD_0": 4,
						"TEXCOORD_1": 5
					},
					"indices": 0,
					"material": 0
				},
				{
					"attributes":
					{
						"POSITION": 7,
						"NORMAL": 8,
						"TANGENT": 9,
						"TEXCOORD_0": 10,
						"TEXCOORD_1": 11
					},
					"indices": 6,
					"material": 1
				}
			]
		}
	],
	"nodes": [
		{
			"name": "SK_Cartoon_Female_019_27_StaticMeshComponent0",
			"mesh": 0
		}
	],
	"samplers": [
		{
			"name": "SK_Cartoon_Female_019",
			"minFilter": 9987,
			"magFilter": 9729
		}
	],
	"scenes": [
		{
			"name": "Untitled_1",
			"nodes": [ 0 ]
		}
	],
	"textures": [
		{
			"name": "SK_Cartoon_Female_019",
			"sampler": 0,
			"source": 0
		}
	],
	"extensionsUsed": [
		"KHR_materials_unlit"
	]
}