{
	"asset":
	{
		"version": "2.0",
		"generator": "Unreal Engine 4.27.0 glTF Exporter 1.0.6"
	},
	"scene": 0,
	"accessors": [
		{
			"bufferView": 0,
			"count": 35091,
			"type": "SCALAR",
			"componentType": 5123
		},
		{
			"bufferView": 1,
			"count": 11539,
			"type": "VEC3",
			"componentType": 5126,
			"min": [ -0.415186077,
				-0.00641648937,
				-0.841131449
			],
			"max": [ 0.665772557,
				1.67415428,
				0.176019117
			]
		},
		{
			"bufferView": 2,
			"count": 11539,
			"type": "VEC3",
			"componentType": 5126
		},
		{
			"bufferView": 3,
			"count": 11539,
			"type": "VEC4",
			"componentType": 5126
		},
		{
			"bufferView": 4,
			"count": 11539,
			"type": "VEC2",
			"componentType": 5126
		},
		{
			"bufferView": 5,
			"count": 11539,
			"type": "VEC2",
			"componentType": 5126
		},
		{
			"bufferView": 6,
			"count": 11539,
			"type": "VEC2",
			"componentType": 5126
		},
		{
			"bufferView": 7,
			"count": 11539,
			"type": "VEC2",
			"componentType": 5126
		},
		{
			"bufferView": 8,
			"count": 11539,
			"type": "VEC2",
			"componentType": 5126
		},
		{
			"bufferView": 9,
			"count": 11539,
			"type": "VEC2",
			"componentType": 5126
		},
		{
			"bufferView": 10,
			"count": 53265,
			"type": "SCALAR",
			"componentType": 5123
		},
		{
			"bufferView": 11,
			"count": 17435,
			"type": "VEC3",
			"componentType": 5126,
			"min": [ -0.411787331,
				-0.00401583919,
				-0.838013053
			],
			"max": [ 0.663324177,
				1.67136145,
				0.174750805
			]
		},
		{
			"bufferView": 12,
			"count": 17435,
			"type": "VEC3",
			"componentType": 5126
		},
		{
			"bufferView": 13,
			"count": 17435,
			"type": "VEC4",
			"componentType": 5126
		},
		{
			"bufferView": 14,
			"count": 17435,
			"type": "VEC2",
			"componentType": 5126
		},
		{
			"bufferView": 15,
			"count": 17435,
			"type": "VEC2",
			"componentType": 5126
		},
		{
			"bufferView": 16,
			"count": 17435,
			"type": "VEC2",
			"componentType": 5126
		},
		{
			"bufferView": 17,
			"count": 17435,
			"type": "VEC2",
			"componentType": 5126
		},
		{
			"bufferView": 18,
			"count": 17435,
			"type": "VEC2",
			"componentType": 5126
		},
		{
			"bufferView": 19,
			"count": 17435,
			"type": "VEC2",
			"componentType": 5126
		}
	],
	"buffers": [
		{
			"uri": "SK_Cartoon_41.bin",
			"byteLength": 2726428
		}
	],
	"bufferViews": [
		{
			"buffer": 0,
			"byteLength": 70182,
			"target": 34963
		},
		{
			"buffer": 0,
			"byteLength": 138468,
			"byteOffset": 70184,
			"target": 34962
		},
		{
			"buffer": 0,
			"byteLength": 138468,
			"byteOffset": 208652,
			"target": 34962
		},
		{
			"buffer": 0,
			"byteLength": 184624,
			"byteOffset": 347120,
			"target": 34962
		},
		{
			"buffer": 0,
			"byteLength": 92312,
			"byteOffset": 531744,
			"target": 34962
		},
		{
			"buffer": 0,
			"byteLength": 92312,
			"byteOffset": 624056,
			"target": 34962
		},
		{
			"buffer": 0,
			"byteLength": 92312,
			"byteOffset": 716368,
			"target": 34962
		},
		{
			"buffer": 0,
			"byteLength": 92312,
			"byteOffset": 808680,
			"target": 34962
		},
		{
			"buffer": 0,
			"byteLength": 92312,
			"byteOffset": 900992,
			"target": 34962
		},
		{
			"buffer": 0,
			"byteLength": 92312,
			"byteOffset": 993304,
			"target": 34962
		},
		{
			"buffer": 0,
			"byteLength": 106530,
			"byteOffset": 1085616,
			"target": 34963
		},
		{
			"buffer": 0,
			"byteLength": 209220,
			"byteOffset": 1192148,
			"target": 34962
		},
		{
			"buffer": 0,
			"byteLength": 209220,
			"byteOffset": 1401368,
			"target": 34962
		},
		{
			"buffer": 0,
			"byteLength": 278960,
			"byteOffset": 1610588,
			"target": 34962
		},
		{
			"buffer": 0,
			"byteLength": 139480,
			"byteOffset": 1889548,
			"target": 34962
		},
		{
			"buffer": 0,
			"byteLength": 139480,
			"byteOffset": 2029028,
			"target": 34962
		},
		{
			"buffer": 0,
			"byteLength": 139480,
			"byteOffset": 2168508,
			"target": 34962
		},
		{
			"buffer": 0,
			"byteLength": 139480,
			"byteOffset": 2307988,
			"target": 34962
		},
		{
			"buffer": 0,
			"byteLength": 139480,
			"byteOffset": 2447468,
			"target": 34962
		},
		{
			"buffer": 0,
			"byteLength": 139480,
			"byteOffset": 2586948,
			"target": 34962
		}
	],
	"images": [
		{
			"uri": "SK_Cartoon_Female_041.png"
		}
	],
	"materials": [
		{
			"name": "NewMaterial",
			"pbrMetallicRoughness":
			{
				"baseColorFactor": [ 0,
					0,
					0,
					1
				]
			},
			"extensions":
			{
				"KHR_materials_unlit":
				{
				}
			}
		},
		{
			"name": "MI_Cartoon_Female_041",
			"pbrMetallicRoughness":
			{
				"baseColorTexture":
				{
					"index": 0
				}
			},
			"alphaMode": "MASK",
			"alphaCutoff": 0.333299994,
			"extensions":
			{
				"KHR_materials_unlit":
				{
				}
			}
		}
	],
	"meshes": [
		{
			"name": "SK_Cartoon_Female_041_pose",
			"primitives": [
				{
					"attributes":
					{
						"POSITION": 1,
						"NORMAL": 2,
						"TANGENT": 3,
						"TEXCOORD_0": 4,
						"TEXCOORD_1": 5,
						"TEXCOORD_2": 6,
						"TEXCOORD_3": 7,
						"TEXCOORD_4": 8,
						"TEXCOORD_5": 9
					},
					"indices": 0,
					"material": 0
				},
				{
					"attributes":
					{
						"POSITION": 11,
						"NORMAL": 12,
						"TANGENT": 13,
						"TEXCOORD_0": 14,
						"TEXCOORD_1": 15,
						"TEXCOORD_2": 16,
						"TEXCOORD_3": 17,
						"TEXCOORD_4": 18,
						"TEXCOORD_5": 19
					},
					"indices": 10,
					"material": 1
				}
			]
		}
	],
	"nodes": [
		{
			"name": "SK_Cartoon_Female_041_pose_41_StaticMeshComponent0",
			"mesh": 0
		}
	],
	"samplers": [
		{
			"name": "SK_Cartoon_Female_041",
			"minFilter": 9987,
			"magFilter": 9729
		}
	],
	"scenes": [
		{
			"name": "Untitled_1",
			"nodes": [ 0 ]
		}
	],
	"textures": [
		{
			"name": "SK_Cartoon_Female_041",
			"sampler": 0,
			"source": 0
		}
	],
	"extensionsUsed": [
		"KHR_materials_unlit"
	]
}