<svg width="6" height="9" viewBox="0 0 6 9" fill="none" xmlns="http://www.w3.org/2000/svg">
<path d="M0.262067 8.78208C0.31574 8.83589 0.3795 8.87858 0.449697 8.90771C0.519894 8.93683 0.595148 8.95183 0.671149 8.95183C0.747149 8.95183 0.822403 8.93683 0.8926 8.90771C0.962797 8.87858 1.02656 8.83589 1.08023 8.78208L4.96766 4.89464C5.01052 4.85188 5.04451 4.80109 5.06771 4.74517C5.0909 4.68925 5.10284 4.6293 5.10284 4.56876C5.10284 4.50823 5.0909 4.44828 5.06771 4.39236C5.04451 4.33644 5.01052 4.28565 4.96766 4.24289L1.08023 0.355451C0.853733 0.128953 0.488564 0.128953 0.262067 0.355451C0.0355694 0.581948 0.0355694 0.947117 0.262067 1.17361L3.6549 4.56645L0.257445 7.96391C0.0355696 8.19041 0.0355701 8.55558 0.262067 8.78208Z" fill="#959799"/>
</svg>
