<svg width="224" height="45" viewBox="0 0 224 45" fill="none" xmlns="http://www.w3.org/2000/svg">
<path d="M13.5951 28.1789C12.4827 28.6732 10.7525 29.4148 10.3817 29.6002C9.82553 29.9092 9.20757 30.5889 9.20757 32.0102V37.819C9.20757 39.1785 8.15704 40.229 6.79754 40.229C5.49982 40.229 4.4493 39.1785 4.4493 37.819V6.24137C4.4493 4.94366 5.49982 3.89313 6.79754 3.89313C8.15704 3.89313 9.20757 4.94366 9.20757 6.24137V15.9433L12.421 14.4602C12.9771 14.213 13.5951 13.5333 13.5951 12.112V5.49982C13.5951 2.53363 11.2468 0.061795 8.28063 0H5.56162C2.47183 0 0 2.47183 0 5.49982V38.6224C0 41.6504 2.47183 44.1222 5.56162 44.1222H8.28063C11.2468 43.9986 13.5951 41.5886 13.5951 38.6224V28.1789Z" fill="white"/>
<path d="M32.2333 0C29.1435 0 26.6716 2.47183 26.6716 5.49982V38.6842C26.7334 41.6504 29.2053 44.1222 32.2333 44.1222H35.632C38.5982 43.9986 40.9465 41.6504 41.0083 38.6842V5.49982C41.0083 2.53363 38.5982 0.12359 35.632 0H32.2333ZM33.4692 40.229C32.1715 40.1673 31.1209 39.1167 31.1209 37.819V6.30317C31.1209 5.00546 32.1715 3.95493 33.4692 3.89313H34.1489C35.4466 3.89313 36.4972 4.94366 36.4972 6.30317V37.819C36.4972 39.1785 35.4466 40.229 34.1489 40.229H33.4692Z" fill="white"/>
<path d="M66.9383 43.6896H71.3258V0.432569H68.6068C67.0001 0.432569 66.6912 1.79208 66.6294 1.97747L61.7475 26.8812L56.6185 2.03926C56.6185 2.03926 56.3713 0.432569 54.641 0.432569H51.922V43.6896H56.3095V21.3813L58.9049 32.69C59.1521 33.6169 59.6464 36.2123 62.2419 36.2123H63.6014L66.9383 21.3813V43.6896Z" fill="white"/>
<path d="M95.3716 43.6896H99.7591V0.432569H97.0401C95.4334 0.432569 95.1245 1.79208 95.0627 1.97747L90.1808 26.8812L85.0517 2.03926C85.0517 2.03926 84.8046 0.432569 83.0743 0.432569H80.3553V43.6896H84.7428V21.3813L87.3382 32.69C87.5854 33.6169 88.0797 36.2123 90.6752 36.2123H92.0347L95.3716 21.3813V43.6896Z" fill="white"/>
<path d="M124.979 0.432569H120.53V37.819C120.53 39.1167 119.479 40.1673 118.182 40.1673H117.502C116.204 40.1673 115.215 39.1167 115.215 37.819V0.432569H112.064C111.384 0.432569 110.828 0.988731 110.766 1.66849V38.6224C110.766 41.6504 113.238 43.9368 116.266 43.9368H119.665V43.875C122.569 43.8132 124.979 41.5886 124.979 38.6224V0.432569Z" fill="white"/>
<path d="M152.145 43.6896V0.432569H147.696V25.3363L143.123 2.84261C142.876 1.60669 142.443 0.432569 139.971 0.432569H137.932V43.6896H142.381V19.5275L147.14 40.9088C147.325 41.7739 147.696 43.6896 150.106 43.6896H152.145Z" fill="white"/>
<path d="M166.89 0.432569V42.7627C166.952 43.0717 167.137 43.6896 168.188 43.6896H171.339V2.16285C171.339 1.4213 170.845 0.432569 169.547 0.432569H166.89Z" fill="white"/>
<path d="M201.928 0.432569H184.255C183.513 0.432569 182.895 1.05053 182.895 1.79208V4.82007H189.137V42.7627C189.137 43.0717 189.322 43.6896 190.372 43.6896H193.524V5.8706C193.586 5.31444 194.018 4.82007 194.636 4.82007H198.097C199.518 4.82007 200.198 4.20211 200.445 3.64595L201.928 0.432569Z" fill="white"/>
<path d="M217.983 43.6896V25.707L223.298 0.432569H220.022C219.899 0.432569 218.786 0.494364 218.601 1.91567L215.758 18.2915L212.916 1.91567C212.73 0.494364 211.618 0.432569 211.495 0.432569H208.219L213.534 25.707V42.3919C213.596 43.1335 214.152 43.6896 214.832 43.6896H217.983Z" fill="white"/>
</svg>
