<svg width="97" height="45" viewBox="0 0 97 45" fill="none" xmlns="http://www.w3.org/2000/svg">
<path d="M14.213 43.6896V0.432569H9.76373V25.3363L5.19085 2.84261C4.94366 1.60669 4.51109 0.432569 2.03926 0.432569H0V43.6896H4.4493V19.5275L9.20757 40.9088C9.39296 41.7739 9.76373 43.6896 12.1738 43.6896H14.213Z" fill="white"/>
<path d="M33.7164 39.3021V24.2857C33.7164 23.7296 34.2107 23.2352 34.7669 23.2352H36.6208C38.0421 23.2352 38.66 22.6173 38.969 22.0611C39.1544 21.6903 39.8959 19.8982 40.3903 18.7859H33.7164V5.9324C33.7164 5.31444 34.1489 4.88187 34.7669 4.88187H38.351C39.7723 4.88187 40.4521 4.20211 40.6993 3.64595L42.1824 0.432569H30.6266C29.885 0.432569 29.3289 0.988731 29.2671 1.66849V43.6896H39.1544C40.5757 43.6896 41.2554 43.0717 41.5644 42.5155C41.7498 42.1447 42.4914 40.4144 42.9857 39.3021H33.7164Z" fill="white"/>
<path d="M65.0845 43.6896H69.2248L74.4774 0.432569H70.9551C70.0281 0.432569 69.7192 0.988731 69.6574 1.29771L66.8148 25.0273L63.9103 6.61215H63.3542C60.5116 6.61215 59.77 7.53908 59.5228 10.0727L57.36 25.0273L54.3938 1.3595C54.332 1.05053 54.0848 0.432569 53.0343 0.432569H49.6355L55.0117 43.6896H59.0903L62.0565 21.7521L65.0845 43.6896Z" fill="white"/>
<path d="M95.4952 9.82553C96.0514 9.51655 96.7311 8.8368 96.7311 7.41549V5.74701C96.7311 2.78081 94.3211 0.061795 91.3549 0H88.5741C85.4843 0 83.0125 2.71901 83.0125 5.74701V10.1963C83.0125 10.1963 82.8271 13.1007 84.9899 17.0556L90.3044 27.0048C90.3044 27.0048 92.22 30.3417 92.22 32.8754V37.819C92.22 39.1785 91.1695 40.229 89.8718 40.229C88.5741 40.229 87.5236 39.1785 87.5236 37.8808V30.3417C86.4112 30.8361 84.6192 31.6394 84.2484 31.763C83.6922 32.072 83.0125 32.7518 83.0125 34.1731V38.6224C83.0743 41.5886 85.4225 43.9986 88.3887 44.1222H91.1695C94.2593 44.1222 96.7311 41.6504 96.7311 38.6224V33.1225C96.7311 33.1225 96.9165 30.2181 94.7537 26.2632L89.4392 16.2523C89.4392 16.2523 87.5236 12.9771 87.5236 10.4435V6.30317C87.5236 4.94366 88.5741 3.89313 89.8718 3.89313C91.1695 3.89313 92.22 4.94366 92.22 6.30317V11.3086C93.3942 10.8143 95.1245 10.0109 95.4952 9.82553Z" fill="white"/>
</svg>
