<svg width="176" height="45" viewBox="0 0 176 45" fill="none" xmlns="http://www.w3.org/2000/svg">
<path d="M93.256 43.6896V0.432569H88.8067V25.3363L84.2338 2.84261C83.9866 1.60669 83.5541 0.432569 81.0822 0.432569H79.043V43.6896H83.4923V19.5275L88.2505 40.9088C88.4359 41.7739 88.8067 43.6896 91.2167 43.6896H93.256Z" fill="white"/>
<path d="M112.759 39.3021V24.2857C112.759 23.7296 113.254 23.2352 113.81 23.2352H115.664C117.085 23.2352 117.703 22.6173 118.012 22.0611C118.197 21.6903 118.939 19.8982 119.433 18.7859H112.759V5.9324C112.759 5.31444 113.192 4.88187 113.81 4.88187H117.394C118.815 4.88187 119.495 4.20211 119.742 3.64595L121.225 0.432569H109.67C108.928 0.432569 108.372 0.988731 108.31 1.66849V43.6896H118.197C119.619 43.6896 120.298 43.0717 120.607 42.5155C120.793 42.1447 121.534 40.4144 122.029 39.3021H112.759Z" fill="white"/>
<path d="M144.127 43.6896H148.268L153.52 0.432569H149.998C149.071 0.432569 148.762 0.988731 148.7 1.29771L145.858 25.0273L142.953 6.61215H142.397C139.555 6.61215 138.813 7.53908 138.566 10.0727L136.403 25.0273L133.437 1.3595C133.375 1.05053 133.128 0.432569 132.077 0.432569H128.678L134.055 43.6896H138.133L141.099 21.7521L144.127 43.6896Z" fill="white"/>
<path d="M174.538 9.82553C175.094 9.51655 175.774 8.8368 175.774 7.41549V5.74701C175.774 2.78081 173.364 0.061795 170.398 0H167.617C164.527 0 162.055 2.71901 162.055 5.74701V10.1963C162.055 10.1963 161.87 13.1007 164.033 17.0556L169.347 27.0048C169.347 27.0048 171.263 30.3417 171.263 32.8754V37.819C171.263 39.1785 170.212 40.229 168.915 40.229C167.617 40.229 166.567 39.1785 166.567 37.8808V30.3417C165.454 30.8361 163.662 31.6394 163.291 31.763C162.735 32.072 162.055 32.7518 162.055 34.1731V38.6224C162.117 41.5886 164.465 43.9986 167.432 44.1222H170.212C173.302 44.1222 175.774 41.6504 175.774 38.6224V33.1225C175.774 33.1225 175.959 30.2181 173.797 26.2632L168.482 16.2523C168.482 16.2523 166.567 12.9771 166.567 10.4435V6.30317C166.567 4.94366 167.617 3.89313 168.915 3.89313C170.212 3.89313 171.263 4.94366 171.263 6.30317V11.3086C172.437 10.8143 174.167 10.0109 174.538 9.82553Z" fill="white"/>
<path d="M0 1.434V43.904C0 44.214 0.186 44.834 1.24 44.834H4.402V25.366H7.068C11.346 25.366 13.392 22.328 13.392 18.112V6.89C13.392 3.852 10.726 1.434 7.75 1.434H0ZM9.114 19.104C8.99 20.282 7.998 21.212 6.758 21.212H4.402V5.588H6.758C7.998 5.588 8.99 6.518 9.114 7.696V19.104Z" fill="white"/>
<path d="M21.9978 1.434C22.4938 2.55 22.8038 4.286 22.9898 4.658C23.1758 5.092 23.6718 5.588 24.5398 5.774C25.2218 5.898 25.3458 6.332 25.3458 6.828V43.47C25.3458 44.214 25.9658 44.834 26.7098 44.834H29.8098V4.41C29.8098 1.186 27.4538 1.434 27.4538 1.434H21.9978Z" fill="white"/>
<path d="M49.1391 4.906C50.4411 4.906 51.4951 5.96 51.4951 7.262V14.516C51.4951 16.686 49.5731 20.902 49.5731 20.902L44.1791 33.426C42.1951 37.766 42.3191 41.052 42.3191 41.052V44.834H53.7271C55.1531 44.834 55.8351 44.152 56.1451 43.594C56.3311 43.222 57.0751 41.548 57.5711 40.37H46.7831V39.688C46.7831 37.704 48.7051 33.55 48.7051 33.55L54.9671 19.29C56.0211 17.058 55.9591 14.02 55.9591 14.02V6.518C55.9591 3.48 53.4791 1 50.4411 1H47.8371C44.7991 1 42.3191 3.48 42.3191 6.518V8.44C42.3191 9.866 42.9391 10.548 43.4971 10.858C43.8691 11.044 45.6051 11.85 46.7831 12.346V7.262C46.7831 5.96 47.8371 4.906 49.1391 4.906Z" fill="white"/>
</svg>
