{
	"asset":
	{
		"version": "2.0",
		"generator": "Unreal Engine 4.27.0 glTF Exporter 1.0.6"
	},
	"scene": 0,
	"accessors": [
		{
			"bufferView": 0,
			"count": 8910,
			"type": "SCALAR",
			"componentType": 5123
		},
		{
			"bufferView": 1,
			"count": 6772,
			"type": "VEC3",
			"componentType": 5126,
			"min": [ -0.515438914,
				0.156117737,
				-0.340297639
			],
			"max": [ 0.57325393,
				2.00532341,
				0.441860497
			]
		},
		{
			"bufferView": 2,
			"count": 6772,
			"type": "VEC3",
			"componentType": 5126
		},
		{
			"bufferView": 3,
			"count": 6772,
			"type": "VEC4",
			"componentType": 5126
		},
		{
			"bufferView": 4,
			"count": 6772,
			"type": "VEC2",
			"componentType": 5126
		}
	],
	"buffers": [
		{
			"uri": "SK_Lowpoly_06.bin",
			"byteLength": 342876
		}
	],
	"bufferViews": [
		{
			"buffer": 0,
			"byteLength": 17820,
			"target": 34963
		},
		{
			"buffer": 0,
			"byteLength": 81264,
			"byteOffset": 17820,
			"target": 34962
		},
		{
			"buffer": 0,
			"byteLength": 81264,
			"byteOffset": 99084,
			"target": 34962
		},
		{
			"buffer": 0,
			"byteLength": 108352,
			"byteOffset": 180348,
			"target": 34962
		},
		{
			"buffer": 0,
			"byteLength": 54176,
			"byteOffset": 288700,
			"target": 34962
		}
	],
	"images": [
		{
			"uri": "MI_Lowpoly_Male_006_BaseColor.png"
		},
		{
			"uri": "MI_Lowpoly_Male_006_MetallicRoughness.png"
		}
	],
	"materials": [
		{
			"name": "MI_Lowpoly_Male_006",
			"pbrMetallicRoughness":
			{
				"baseColorTexture":
				{
					"index": 0
				},
				"metallicRoughnessTexture":
				{
					"index": 1
				}
			}
		}
	],
	"meshes": [
		{
			"name": "SK_Lowpoly_Male_006_Pose",
			"primitives": [
				{
					"attributes":
					{
						"POSITION": 1,
						"NORMAL": 2,
						"TANGENT": 3,
						"TEXCOORD_0": 4
					},
					"indices": 0,
					"material": 0
				}
			]
		}
	],
	"nodes": [
		{
			"name": "SK_Lowpoly_Male_006_Pose_61_StaticMeshComponent0",
			"mesh": 0
		}
	],
	"samplers": [
		{
			"name": "MI_Lowpoly_Male_006_BaseColor",
			"minFilter": 9987,
			"magFilter": 9729
		},
		{
			"name": "MI_Lowpoly_Male_006_MetallicRoughness",
			"minFilter": 9987,
			"magFilter": 9729
		}
	],
	"scenes": [
		{
			"name": "Untitled_1",
			"nodes": [ 0 ]
		}
	],
	"textures": [
		{
			"name": "MI_Lowpoly_Male_006_BaseColor",
			"sampler": 0,
			"source": 0
		},
		{
			"name": "MI_Lowpoly_Male_006_MetallicRoughness",
			"sampler": 1,
			"source": 1
		}
	]
}