{
	"asset":
	{
		"version": "2.0",
		"generator": "Unreal Engine 4.27.0 glTF Exporter 1.0.6"
	},
	"scene": 0,
	"accessors": [
		{
			"bufferView": 0,
			"count": 8469,
			"type": "SCALAR",
			"componentType": 5123
		},
		{
			"bufferView": 1,
			"count": 6430,
			"type": "VEC3",
			"componentType": 5126,
			"min": [ -0.472642571,
				-0.00871459022,
				-0.463579386
			],
			"max": [ 0.487304151,
				1.59255123,
				0.308981925
			]
		},
		{
			"bufferView": 2,
			"count": 6430,
			"type": "VEC3",
			"componentType": 5126
		},
		{
			"bufferView": 3,
			"count": 6430,
			"type": "VEC4",
			"componentType": 5126
		},
		{
			"bufferView": 4,
			"count": 6430,
			"type": "VEC2",
			"componentType": 5126
		},
		{
			"bufferView": 5,
			"count": 6430,
			"type": "VEC2",
			"componentType": 5126
		}
	],
	"buffers": [
		{
			"uri": "SK_Lowpoly_08.bin",
			"byteLength": 377020
		}
	],
	"bufferViews": [
		{
			"buffer": 0,
			"byteLength": 16938,
			"target": 34963
		},
		{
			"buffer": 0,
			"byteLength": 77160,
			"byteOffset": 16940,
			"target": 34962
		},
		{
			"buffer": 0,
			"byteLength": 77160,
			"byteOffset": 94100,
			"target": 34962
		},
		{
			"buffer": 0,
			"byteLength": 102880,
			"byteOffset": 171260,
			"target": 34962
		},
		{
			"buffer": 0,
			"byteLength": 51440,
			"byteOffset": 274140,
			"target": 34962
		},
		{
			"buffer": 0,
			"byteLength": 51440,
			"byteOffset": 325580,
			"target": 34962
		}
	],
	"images": [
		{
			"uri": "MI_Lowpoly_Male_008_BaseColor.png"
		},
		{
			"uri": "MI_Lowpoly_Male_008_MetallicRoughness.png"
		}
	],
	"materials": [
		{
			"name": "MI_Lowpoly_Male_008",
			"pbrMetallicRoughness":
			{
				"baseColorTexture":
				{
					"index": 0
				},
				"metallicRoughnessTexture":
				{
					"index": 1
				}
			}
		}
	],
	"meshes": [
		{
			"name": "SK_Lowpoly_Male_008_Pose",
			"primitives": [
				{
					"attributes":
					{
						"POSITION": 1,
						"NORMAL": 2,
						"TANGENT": 3,
						"TEXCOORD_0": 4,
						"TEXCOORD_1": 5
					},
					"indices": 0,
					"material": 0
				}
			]
		}
	],
	"nodes": [
		{
			"name": "SK_Lowpoly_Male_008_Pose_72_StaticMeshComponent0",
			"mesh": 0
		}
	],
	"samplers": [
		{
			"name": "MI_Lowpoly_Male_008_BaseColor",
			"minFilter": 9987,
			"magFilter": 9729
		},
		{
			"name": "MI_Lowpoly_Male_008_MetallicRoughness",
			"minFilter": 9987,
			"magFilter": 9729
		}
	],
	"scenes": [
		{
			"name": "Untitled_1",
			"nodes": [ 0 ]
		}
	],
	"textures": [
		{
			"name": "MI_Lowpoly_Male_008_BaseColor",
			"sampler": 0,
			"source": 0
		},
		{
			"name": "MI_Lowpoly_Male_008_MetallicRoughness",
			"sampler": 1,
			"source": 1
		}
	]
}