{
	"asset":
	{
		"version": "2.0",
		"generator": "Unreal Engine 4.27.0 glTF Exporter 1.0.6"
	},
	"scene": 0,
	"accessors": [
		{
			"bufferView": 0,
			"count": 8832,
			"type": "SCALAR",
			"componentType": 5123
		},
		{
			"bufferView": 1,
			"count": 6465,
			"type": "VEC3",
			"componentType": 5126,
			"min": [ -0.515295684,
				-0.0104326317,
				-0.611147761
			],
			"max": [ 0.714678943,
				1.71212721,
				0.327286661
			]
		},
		{
			"bufferView": 2,
			"count": 6465,
			"type": "VEC3",
			"componentType": 5126
		},
		{
			"bufferView": 3,
			"count": 6465,
			"type": "VEC4",
			"componentType": 5126
		},
		{
			"bufferView": 4,
			"count": 6465,
			"type": "VEC2",
			"componentType": 5126
		},
		{
			"bufferView": 5,
			"count": 6465,
			"type": "VEC2",
			"componentType": 5126
		}
	],
	"buffers": [
		{
			"uri": "SK_Lowpoly_Male_002.bin",
			"byteLength": 379704
		}
	],
	"bufferViews": [
		{
			"buffer": 0,
			"byteLength": 17664,
			"target": 34963
		},
		{
			"buffer": 0,
			"byteLength": 77580,
			"byteOffset": 17664,
			"target": 34962
		},
		{
			"buffer": 0,
			"byteLength": 77580,
			"byteOffset": 95244,
			"target": 34962
		},
		{
			"buffer": 0,
			"byteLength": 103440,
			"byteOffset": 172824,
			"target": 34962
		},
		{
			"buffer": 0,
			"byteLength": 51720,
			"byteOffset": 276264,
			"target": 34962
		},
		{
			"buffer": 0,
			"byteLength": 51720,
			"byteOffset": 327984,
			"target": 34962
		}
	],
	"images": [
		{
			"uri": "MI_Lowpoly_Male_002_BaseColor.png"
		},
		{
			"uri": "MI_Lowpoly_Male_002_MetallicRoughness.png"
		},
		{
			"uri": "MI_Lowpoly_Male_002_Emissive.png"
		}
	],
	"materials": [
		{
			"name": "MI_Lowpoly_Male_002",
			"pbrMetallicRoughness":
			{
				"baseColorTexture":
				{
					"index": 0
				},
				"metallicRoughnessTexture":
				{
					"index": 1
				}
			},
			"emissiveTexture":
			{
				"index": 2
			},
			"emissiveFactor": [ 2,
				2,
				2
			]
		}
	],
	"meshes": [
		{
			"name": "SK_Lowpoly_Male_002",
			"primitives": [
				{
					"attributes":
					{
						"POSITION": 1,
						"NORMAL": 2,
						"TANGENT": 3,
						"TEXCOORD_0": 4,
						"TEXCOORD_1": 5
					},
					"indices": 0,
					"material": 0
				}
			]
		}
	],
	"nodes": [
		{
			"mesh": 0
		}
	],
	"samplers": [
		{
			"name": "MI_Lowpoly_Male_002_BaseColor",
			"minFilter": 9987,
			"magFilter": 9729
		},
		{
			"name": "MI_Lowpoly_Male_002_MetallicRoughness",
			"minFilter": 9987,
			"magFilter": 9729
		},
		{
			"name": "MI_Lowpoly_Male_002_Emissive",
			"minFilter": 9987,
			"magFilter": 9729
		}
	],
	"scenes": [
		{
			"nodes": [ 0 ]
		}
	],
	"textures": [
		{
			"name": "MI_Lowpoly_Male_002_BaseColor",
			"sampler": 0,
			"source": 0
		},
		{
			"name": "MI_Lowpoly_Male_002_MetallicRoughness",
			"sampler": 1,
			"source": 1
		},
		{
			"name": "MI_Lowpoly_Male_002_Emissive",
			"sampler": 2,
			"source": 2
		}
	]
}