{
	"asset":
	{
		"version": "2.0",
		"generator": "Unreal Engine 4.27.0 glTF Exporter 1.0.6"
	},
	"scene": 0,
	"accessors": [
		{
			"bufferView": 0,
			"count": 45963,
			"type": "SCALAR",
			"componentType": 5123
		},
		{
			"bufferView": 1,
			"count": 11676,
			"type": "VEC3",
			"componentType": 5126,
			"min": [ -0.566969454,
				-0.0163404979,
				-0.777890325
			],
			"max": [ 0.423100233,
				1.5368377,
				0.19286865
			]
		},
		{
			"bufferView": 2,
			"count": 11676,
			"type": "VEC3",
			"componentType": 5126
		},
		{
			"bufferView": 3,
			"count": 11676,
			"type": "VEC4",
			"componentType": 5126
		},
		{
			"bufferView": 4,
			"count": 11676,
			"type": "VEC2",
			"componentType": 5126
		},
		{
			"bufferView": 5,
			"count": 11676,
			"type": "VEC2",
			"componentType": 5126
		},
		{
			"bufferView": 6,
			"count": 42510,
			"type": "SCALAR",
			"componentType": 5123
		},
		{
			"bufferView": 7,
			"count": 10942,
			"type": "VEC3",
			"componentType": 5126,
			"min": [ -0.568433225,
				-0.019001117,
				-0.778300941
			],
			"max": [ 0.424898177,
				1.53980041,
				0.194713593
			]
		},
		{
			"bufferView": 8,
			"count": 10942,
			"type": "VEC3",
			"componentType": 5126
		},
		{
			"bufferView": 9,
			"count": 10942,
			"type": "VEC4",
			"componentType": 5126
		},
		{
			"bufferView": 10,
			"count": 10942,
			"type": "VEC2",
			"componentType": 5126
		},
		{
			"bufferView": 11,
			"count": 10942,
			"type": "VEC2",
			"componentType": 5126
		}
	],
	"buffers": [
		{
			"uri": "SK_Cartoon_57.bin",
			"byteLength": 1443556
		}
	],
	"bufferViews": [
		{
			"buffer": 0,
			"byteLength": 91926,
			"target": 34963
		},
		{
			"buffer": 0,
			"byteLength": 140112,
			"byteOffset": 91928,
			"target": 34962
		},
		{
			"buffer": 0,
			"byteLength": 140112,
			"byteOffset": 232040,
			"target": 34962
		},
		{
			"buffer": 0,
			"byteLength": 186816,
			"byteOffset": 372152,
			"target": 34962
		},
		{
			"buffer": 0,
			"byteLength": 93408,
			"byteOffset": 558968,
			"target": 34962
		},
		{
			"buffer": 0,
			"byteLength": 93408,
			"byteOffset": 652376,
			"target": 34962
		},
		{
			"buffer": 0,
			"byteLength": 85020,
			"byteOffset": 745784,
			"target": 34963
		},
		{
			"buffer": 0,
			"byteLength": 131304,
			"byteOffset": 830804,
			"target": 34962
		},
		{
			"buffer": 0,
			"byteLength": 131304,
			"byteOffset": 962108,
			"target": 34962
		},
		{
			"buffer": 0,
			"byteLength": 175072,
			"byteOffset": 1093412,
			"target": 34962
		},
		{
			"buffer": 0,
			"byteLength": 87536,
			"byteOffset": 1268484,
			"target": 34962
		},
		{
			"buffer": 0,
			"byteLength": 87536,
			"byteOffset": 1356020,
			"target": 34962
		}
	],
	"images": [
		{
			"uri": "SK_Cartoon_Female_057.png"
		}
	],
	"materials": [
		{
			"name": "MI_Cartoon_Female_057",
			"pbrMetallicRoughness":
			{
				"baseColorTexture":
				{
					"index": 0
				}
			},
			"alphaMode": "MASK",
			"alphaCutoff": 0.333299994,
			"extensions":
			{
				"KHR_materials_unlit":
				{
				}
			}
		},
		{
			"name": "NewMaterial",
			"pbrMetallicRoughness":
			{
				"baseColorFactor": [ 0,
					0,
					0,
					1
				]
			},
			"extensions":
			{
				"KHR_materials_unlit":
				{
				}
			}
		}
	],
	"meshes": [
		{
			"name": "SK_Cartoon_Female_057_pose",
			"primitives": [
				{
					"attributes":
					{
						"POSITION": 1,
						"NORMAL": 2,
						"TANGENT": 3,
						"TEXCOORD_0": 4,
						"TEXCOORD_1": 5
					},
					"indices": 0,
					"material": 0
				},
				{
					"attributes":
					{
						"POSITION": 7,
						"NORMAL": 8,
						"TANGENT": 9,
						"TEXCOORD_0": 10,
						"TEXCOORD_1": 11
					},
					"indices": 6,
					"material": 1
				}
			]
		}
	],
	"nodes": [
		{
			"name": "SK_Cartoon_Female_057_pose_8_StaticMeshComponent0",
			"mesh": 0
		}
	],
	"samplers": [
		{
			"name": "SK_Cartoon_Female_057",
			"minFilter": 9987,
			"magFilter": 9729
		}
	],
	"scenes": [
		{
			"name": "Untitled_1",
			"nodes": [ 0 ]
		}
	],
	"textures": [
		{
			"name": "SK_Cartoon_Female_057",
			"sampler": 0,
			"source": 0
		}
	],
	"extensionsUsed": [
		"KHR_materials_unlit"
	]
}