{
	"asset":
	{
		"version": "2.0",
		"generator": "Unreal Engine 4.27.0 glTF Exporter 1.0.6"
	},
	"scene": 0,
	"accessors": [
		{
			"bufferView": 0,
			"count": 35826,
			"type": "SCALAR",
			"componentType": 5123
		},
		{
			"bufferView": 1,
			"count": 12365,
			"type": "VEC3",
			"componentType": 5126,
			"min": [ -0.423226506,
				-0.00135795528,
				-0.417450696
			],
			"max": [ 0.647784412,
				1.65921307,
				0.473407
			]
		},
		{
			"bufferView": 2,
			"count": 12365,
			"type": "VEC3",
			"componentType": 5126
		},
		{
			"bufferView": 3,
			"count": 12365,
			"type": "VEC4",
			"componentType": 5126
		},
		{
			"bufferView": 4,
			"count": 12365,
			"type": "VEC2",
			"componentType": 5126
		},
		{
			"bufferView": 5,
			"count": 12365,
			"type": "VEC2",
			"componentType": 5126
		},
		{
			"bufferView": 6,
			"count": 12365,
			"type": "VEC2",
			"componentType": 5126
		},
		{
			"bufferView": 7,
			"count": 12365,
			"type": "VEC2",
			"componentType": 5126
		},
		{
			"bufferView": 8,
			"count": 12365,
			"type": "VEC2",
			"componentType": 5126
		},
		{
			"bufferView": 9,
			"count": 12365,
			"type": "VEC2",
			"componentType": 5126
		},
		{
			"bufferView": 10,
			"count": 41946,
			"type": "SCALAR",
			"componentType": 5123
		},
		{
			"bufferView": 11,
			"count": 14028,
			"type": "VEC3",
			"componentType": 5126,
			"min": [ -0.421628326,
				0.00112503534,
				-0.414352328
			],
			"max": [ 0.646479547,
				1.65625167,
				0.470528513
			]
		},
		{
			"bufferView": 12,
			"count": 14028,
			"type": "VEC3",
			"componentType": 5126
		},
		{
			"bufferView": 13,
			"count": 14028,
			"type": "VEC4",
			"componentType": 5126
		},
		{
			"bufferView": 14,
			"count": 14028,
			"type": "VEC2",
			"componentType": 5126
		},
		{
			"bufferView": 15,
			"count": 14028,
			"type": "VEC2",
			"componentType": 5126
		},
		{
			"bufferView": 16,
			"count": 14028,
			"type": "VEC2",
			"componentType": 5126
		},
		{
			"bufferView": 17,
			"count": 14028,
			"type": "VEC2",
			"componentType": 5126
		},
		{
			"bufferView": 18,
			"count": 14028,
			"type": "VEC2",
			"componentType": 5126
		},
		{
			"bufferView": 19,
			"count": 14028,
			"type": "VEC2",
			"componentType": 5126
		}
	],
	"buffers": [
		{
			"uri": "SK_Cartoon_44.bin",
			"byteLength": 2478128
		}
	],
	"bufferViews": [
		{
			"buffer": 0,
			"byteLength": 71652,
			"target": 34963
		},
		{
			"buffer": 0,
			"byteLength": 148380,
			"byteOffset": 71652,
			"target": 34962
		},
		{
			"buffer": 0,
			"byteLength": 148380,
			"byteOffset": 220032,
			"target": 34962
		},
		{
			"buffer": 0,
			"byteLength": 197840,
			"byteOffset": 368412,
			"target": 34962
		},
		{
			"buffer": 0,
			"byteLength": 98920,
			"byteOffset": 566252,
			"target": 34962
		},
		{
			"buffer": 0,
			"byteLength": 98920,
			"byteOffset": 665172,
			"target": 34962
		},
		{
			"buffer": 0,
			"byteLength": 98920,
			"byteOffset": 764092,
			"target": 34962
		},
		{
			"buffer": 0,
			"byteLength": 98920,
			"byteOffset": 863012,
			"target": 34962
		},
		{
			"buffer": 0,
			"byteLength": 98920,
			"byteOffset": 961932,
			"target": 34962
		},
		{
			"buffer": 0,
			"byteLength": 98920,
			"byteOffset": 1060852,
			"target": 34962
		},
		{
			"buffer": 0,
			"byteLength": 83892,
			"byteOffset": 1159772,
			"target": 34963
		},
		{
			"buffer": 0,
			"byteLength": 168336,
			"byteOffset": 1243664,
			"target": 34962
		},
		{
			"buffer": 0,
			"byteLength": 168336,
			"byteOffset": 1412000,
			"target": 34962
		},
		{
			"buffer": 0,
			"byteLength": 224448,
			"byteOffset": 1580336,
			"target": 34962
		},
		{
			"buffer": 0,
			"byteLength": 112224,
			"byteOffset": 1804784,
			"target": 34962
		},
		{
			"buffer": 0,
			"byteLength": 112224,
			"byteOffset": 1917008,
			"target": 34962
		},
		{
			"buffer": 0,
			"byteLength": 112224,
			"byteOffset": 2029232,
			"target": 34962
		},
		{
			"buffer": 0,
			"byteLength": 112224,
			"byteOffset": 2141456,
			"target": 34962
		},
		{
			"buffer": 0,
			"byteLength": 112224,
			"byteOffset": 2253680,
			"target": 34962
		},
		{
			"buffer": 0,
			"byteLength": 112224,
			"byteOffset": 2365904,
			"target": 34962
		}
	],
	"images": [
		{
			"uri": "SK_Cartoon_Female_044.png"
		}
	],
	"materials": [
		{
			"name": "NewMaterial",
			"pbrMetallicRoughness":
			{
				"baseColorFactor": [ 0,
					0,
					0,
					1
				]
			},
			"extensions":
			{
				"KHR_materials_unlit":
				{
				}
			}
		},
		{
			"name": "MI_Cartoon_Female_044",
			"pbrMetallicRoughness":
			{
				"baseColorTexture":
				{
					"index": 0
				}
			},
			"alphaMode": "MASK",
			"alphaCutoff": 0.333299994,
			"extensions":
			{
				"KHR_materials_unlit":
				{
				}
			}
		}
	],
	"meshes": [
		{
			"name": "SK_Cartoon_Female_044_pose",
			"primitives": [
				{
					"attributes":
					{
						"POSITION": 1,
						"NORMAL": 2,
						"TANGENT": 3,
						"TEXCOORD_0": 4,
						"TEXCOORD_1": 5,
						"TEXCOORD_2": 6,
						"TEXCOORD_3": 7,
						"TEXCOORD_4": 8,
						"TEXCOORD_5": 9
					},
					"indices": 0,
					"material": 0
				},
				{
					"attributes":
					{
						"POSITION": 11,
						"NORMAL": 12,
						"TANGENT": 13,
						"TEXCOORD_0": 14,
						"TEXCOORD_1": 15,
						"TEXCOORD_2": 16,
						"TEXCOORD_3": 17,
						"TEXCOORD_4": 18,
						"TEXCOORD_5": 19
					},
					"indices": 10,
					"material": 1
				}
			]
		}
	],
	"nodes": [
		{
			"name": "SK_Cartoon_Female_044_pose_44_StaticMeshComponent0",
			"mesh": 0
		}
	],
	"samplers": [
		{
			"name": "SK_Cartoon_Female_044",
			"minFilter": 9987,
			"magFilter": 9729
		}
	],
	"scenes": [
		{
			"name": "Untitled_1",
			"nodes": [ 0 ]
		}
	],
	"textures": [
		{
			"name": "SK_Cartoon_Female_044",
			"sampler": 0,
			"source": 0
		}
	],
	"extensionsUsed": [
		"KHR_materials_unlit"
	]
}