{
	"asset":
	{
		"version": "2.0",
		"generator": "Unreal Engine 4.27.0 glTF Exporter 1.0.6"
	},
	"scene": 0,
	"accessors": [
		{
			"bufferView": 0,
			"count": 37818,
			"type": "SCALAR",
			"componentType": 5123
		},
		{
			"bufferView": 1,
			"count": 10451,
			"type": "VEC3",
			"componentType": 5126,
			"min": [ -0.378700465,
				-0.00389316562,
				-0.279407442
			],
			"max": [ 0.230052173,
				1.67565918,
				0.375692934
			]
		},
		{
			"bufferView": 2,
			"count": 10451,
			"type": "VEC3",
			"componentType": 5126
		},
		{
			"bufferView": 3,
			"count": 10451,
			"type": "VEC4",
			"componentType": 5126
		},
		{
			"bufferView": 4,
			"count": 10451,
			"type": "VEC2",
			"componentType": 5126
		},
		{
			"bufferView": 5,
			"count": 10451,
			"type": "VEC2",
			"componentType": 5126
		},
		{
			"bufferView": 6,
			"count": 10451,
			"type": "VEC2",
			"componentType": 5126
		},
		{
			"bufferView": 7,
			"count": 10451,
			"type": "VEC2",
			"componentType": 5126
		},
		{
			"bufferView": 8,
			"count": 10451,
			"type": "VEC2",
			"componentType": 5126
		},
		{
			"bufferView": 9,
			"count": 10451,
			"type": "VEC2",
			"componentType": 5126
		},
		{
			"bufferView": 10,
			"count": 28302,
			"type": "SCALAR",
			"componentType": 5123
		},
		{
			"bufferView": 11,
			"count": 8243,
			"type": "VEC3",
			"componentType": 5126,
			"min": [ -0.379775584,
				-0.00575409736,
				-0.280872673
			],
			"max": [ 0.23360227,
				1.67657053,
				0.377349734
			]
		},
		{
			"bufferView": 12,
			"count": 8243,
			"type": "VEC3",
			"componentType": 5126
		},
		{
			"bufferView": 13,
			"count": 8243,
			"type": "VEC4",
			"componentType": 5126
		},
		{
			"bufferView": 14,
			"count": 8243,
			"type": "VEC2",
			"componentType": 5126
		},
		{
			"bufferView": 15,
			"count": 8243,
			"type": "VEC2",
			"componentType": 5126
		},
		{
			"bufferView": 16,
			"count": 8243,
			"type": "VEC2",
			"componentType": 5126
		},
		{
			"bufferView": 17,
			"count": 8243,
			"type": "VEC2",
			"componentType": 5126
		},
		{
			"bufferView": 18,
			"count": 8243,
			"type": "VEC2",
			"componentType": 5126
		},
		{
			"bufferView": 19,
			"count": 8243,
			"type": "VEC2",
			"componentType": 5126
		}
	],
	"buffers": [
		{
			"uri": "SK_Cartoon_06.bin",
			"byteLength": 1777312
		}
	],
	"bufferViews": [
		{
			"buffer": 0,
			"byteLength": 75636,
			"target": 34963
		},
		{
			"buffer": 0,
			"byteLength": 125412,
			"byteOffset": 75636,
			"target": 34962
		},
		{
			"buffer": 0,
			"byteLength": 125412,
			"byteOffset": 201048,
			"target": 34962
		},
		{
			"buffer": 0,
			"byteLength": 167216,
			"byteOffset": 326460,
			"target": 34962
		},
		{
			"buffer": 0,
			"byteLength": 83608,
			"byteOffset": 493676,
			"target": 34962
		},
		{
			"buffer": 0,
			"byteLength": 83608,
			"byteOffset": 577284,
			"target": 34962
		},
		{
			"buffer": 0,
			"byteLength": 83608,
			"byteOffset": 660892,
			"target": 34962
		},
		{
			"buffer": 0,
			"byteLength": 83608,
			"byteOffset": 744500,
			"target": 34962
		},
		{
			"buffer": 0,
			"byteLength": 83608,
			"byteOffset": 828108,
			"target": 34962
		},
		{
			"buffer": 0,
			"byteLength": 83608,
			"byteOffset": 911716,
			"target": 34962
		},
		{
			"buffer": 0,
			"byteLength": 56604,
			"byteOffset": 995324,
			"target": 34963
		},
		{
			"buffer": 0,
			"byteLength": 98916,
			"byteOffset": 1051928,
			"target": 34962
		},
		{
			"buffer": 0,
			"byteLength": 98916,
			"byteOffset": 1150844,
			"target": 34962
		},
		{
			"buffer": 0,
			"byteLength": 131888,
			"byteOffset": 1249760,
			"target": 34962
		},
		{
			"buffer": 0,
			"byteLength": 65944,
			"byteOffset": 1381648,
			"target": 34962
		},
		{
			"buffer": 0,
			"byteLength": 65944,
			"byteOffset": 1447592,
			"target": 34962
		},
		{
			"buffer": 0,
			"byteLength": 65944,
			"byteOffset": 1513536,
			"target": 34962
		},
		{
			"buffer": 0,
			"byteLength": 65944,
			"byteOffset": 1579480,
			"target": 34962
		},
		{
			"buffer": 0,
			"byteLength": 65944,
			"byteOffset": 1645424,
			"target": 34962
		},
		{
			"buffer": 0,
			"byteLength": 65944,
			"byteOffset": 1711368,
			"target": 34962
		}
	],
	"images": [
		{
			"uri": "SK_Cartoon_Female_006.png"
		}
	],
	"materials": [
		{
			"name": "MI_Cartoon_Female_006",
			"pbrMetallicRoughness":
			{
				"baseColorTexture":
				{
					"index": 0
				}
			},
			"alphaMode": "MASK",
			"alphaCutoff": 0.333299994,
			"extensions":
			{
				"KHR_materials_unlit":
				{
				}
			}
		},
		{
			"name": "NewMaterial",
			"pbrMetallicRoughness":
			{
				"baseColorFactor": [ 0,
					0,
					0,
					1
				]
			},
			"extensions":
			{
				"KHR_materials_unlit":
				{
				}
			}
		}
	],
	"meshes": [
		{
			"name": "SK_Cartoon_Female_006_Pose",
			"primitives": [
				{
					"attributes":
					{
						"POSITION": 1,
						"NORMAL": 2,
						"TANGENT": 3,
						"TEXCOORD_0": 4,
						"TEXCOORD_1": 5,
						"TEXCOORD_2": 6,
						"TEXCOORD_3": 7,
						"TEXCOORD_4": 8,
						"TEXCOORD_5": 9
					},
					"indices": 0,
					"material": 0
				},
				{
					"attributes":
					{
						"POSITION": 11,
						"NORMAL": 12,
						"TANGENT": 13,
						"TEXCOORD_0": 14,
						"TEXCOORD_1": 15,
						"TEXCOORD_2": 16,
						"TEXCOORD_3": 17,
						"TEXCOORD_4": 18,
						"TEXCOORD_5": 19
					},
					"indices": 10,
					"material": 1
				}
			]
		}
	],
	"nodes": [
		{
			"name": "SK_Cartoon_Female_006_Pose_6_StaticMeshComponent0",
			"mesh": 0
		}
	],
	"samplers": [
		{
			"name": "SK_Cartoon_Female_006",
			"minFilter": 9987,
			"magFilter": 9729
		}
	],
	"scenes": [
		{
			"name": "Untitled_1",
			"nodes": [ 0 ]
		}
	],
	"textures": [
		{
			"name": "SK_Cartoon_Female_006",
			"sampler": 0,
			"source": 0
		}
	],
	"extensionsUsed": [
		"KHR_materials_unlit"
	]
}