{
	"asset":
	{
		"version": "2.0",
		"generator": "Unreal Engine 4.27.0 glTF Exporter 1.0.6"
	},
	"scene": 0,
	"accessors": [
		{
			"bufferView": 0,
			"count": 7680,
			"type": "SCALAR",
			"componentType": 5123
		},
		{
			"bufferView": 1,
			"count": 5842,
			"type": "VEC3",
			"componentType": 5126,
			"min": [ -0.172323108,
				-0.000438601302,
				-0.0751678944
			],
			"max": [ 0.171592608,
				0.527387381,
				0.278267384
			]
		},
		{
			"bufferView": 2,
			"count": 5842,
			"type": "VEC3",
			"componentType": 5126
		},
		{
			"bufferView": 3,
			"count": 5842,
			"type": "VEC4",
			"componentType": 5126
		},
		{
			"bufferView": 4,
			"count": 5842,
			"type": "VEC2",
			"componentType": 5126
		},
		{
			"bufferView": 5,
			"count": 5842,
			"type": "VEC2",
			"componentType": 5126
		},
		{
			"bufferView": 6,
			"count": 5842,
			"type": "VEC2",
			"componentType": 5126
		}
	],
	"buffers": [
		{
			"uri": "SK_Lowpoly_25.bin",
			"byteLength": 389248
		}
	],
	"bufferViews": [
		{
			"buffer": 0,
			"byteLength": 15360,
			"target": 34963
		},
		{
			"buffer": 0,
			"byteLength": 70104,
			"byteOffset": 15360,
			"target": 34962
		},
		{
			"buffer": 0,
			"byteLength": 70104,
			"byteOffset": 85464,
			"target": 34962
		},
		{
			"buffer": 0,
			"byteLength": 93472,
			"byteOffset": 155568,
			"target": 34962
		},
		{
			"buffer": 0,
			"byteLength": 46736,
			"byteOffset": 249040,
			"target": 34962
		},
		{
			"buffer": 0,
			"byteLength": 46736,
			"byteOffset": 295776,
			"target": 34962
		},
		{
			"buffer": 0,
			"byteLength": 46736,
			"byteOffset": 342512,
			"target": 34962
		}
	],
	"images": [
		{
			"uri": "MI_Lowpoly_Male_25_BaseColor.png"
		},
		{
			"uri": "MI_Lowpoly_Male_25_MetallicRoughness.png"
		}
	],
	"materials": [
		{
			"name": "MI_Lowpoly_Male_25",
			"pbrMetallicRoughness":
			{
				"baseColorTexture":
				{
					"index": 0
				},
				"metallicRoughnessTexture":
				{
					"index": 1
				}
			}
		}
	],
	"meshes": [
		{
			"name": "SK_Lowpoly_Male_025_Pose",
			"primitives": [
				{
					"attributes":
					{
						"POSITION": 1,
						"NORMAL": 2,
						"TANGENT": 3,
						"TEXCOORD_0": 4,
						"TEXCOORD_1": 5,
						"TEXCOORD_2": 6
					},
					"indices": 0,
					"material": 0
				}
			]
		}
	],
	"nodes": [
		{
			"name": "SK_Lowpoly_Male_025_Pose_81_StaticMeshComponent0",
			"scale": [ 2.79999995,
				2.79999995,
				2.79999995
			],
			"mesh": 0
		}
	],
	"samplers": [
		{
			"name": "MI_Lowpoly_Male_25_BaseColor",
			"minFilter": 9987,
			"magFilter": 9729
		},
		{
			"name": "MI_Lowpoly_Male_25_MetallicRoughness",
			"minFilter": 9987,
			"magFilter": 9729
		}
	],
	"scenes": [
		{
			"name": "Untitled_1",
			"nodes": [ 0 ]
		}
	],
	"textures": [
		{
			"name": "MI_Lowpoly_Male_25_BaseColor",
			"sampler": 0,
			"source": 0
		},
		{
			"name": "MI_Lowpoly_Male_25_MetallicRoughness",
			"sampler": 1,
			"source": 1
		}
	]
}