{
	"asset":
	{
		"version": "2.0",
		"generator": "Unreal Engine 4.27.0 glTF Exporter 1.0.6"
	},
	"scene": 0,
	"accessors": [
		{
			"bufferView": 0,
			"count": 48831,
			"type": "SCALAR",
			"componentType": 5123
		},
		{
			"bufferView": 1,
			"count": 14750,
			"type": "VEC3",
			"componentType": 5126,
			"min": [ -0.506591797,
				0.00555723114,
				-0.420895249
			],
			"max": [ 0.490590692,
				1.69271195,
				0.342699945
			]
		},
		{
			"bufferView": 2,
			"count": 14750,
			"type": "VEC3",
			"componentType": 5126
		},
		{
			"bufferView": 3,
			"count": 14750,
			"type": "VEC4",
			"componentType": 5126
		},
		{
			"bufferView": 4,
			"count": 14750,
			"type": "VEC2",
			"componentType": 5126
		},
		{
			"bufferView": 5,
			"count": 14750,
			"type": "VEC2",
			"componentType": 5126
		},
		{
			"bufferView": 6,
			"count": 14750,
			"type": "VEC2",
			"componentType": 5126
		},
		{
			"bufferView": 7,
			"count": 14750,
			"type": "VEC2",
			"componentType": 5126
		},
		{
			"bufferView": 8,
			"count": 14750,
			"type": "VEC2",
			"componentType": 5126
		},
		{
			"bufferView": 9,
			"count": 14750,
			"type": "VEC2",
			"componentType": 5126
		},
		{
			"bufferView": 10,
			"count": 41865,
			"type": "SCALAR",
			"componentType": 5123
		},
		{
			"bufferView": 11,
			"count": 12964,
			"type": "VEC3",
			"componentType": 5126,
			"min": [ -0.509158373,
				0.00410679076,
				-0.422461629
			],
			"max": [ 0.492656559,
				1.69440293,
				0.345305324
			]
		},
		{
			"bufferView": 12,
			"count": 12964,
			"type": "VEC3",
			"componentType": 5126
		},
		{
			"bufferView": 13,
			"count": 12964,
			"type": "VEC4",
			"componentType": 5126
		},
		{
			"bufferView": 14,
			"count": 12964,
			"type": "VEC2",
			"componentType": 5126
		},
		{
			"bufferView": 15,
			"count": 12964,
			"type": "VEC2",
			"componentType": 5126
		},
		{
			"bufferView": 16,
			"count": 12964,
			"type": "VEC2",
			"componentType": 5126
		},
		{
			"bufferView": 17,
			"count": 12964,
			"type": "VEC2",
			"componentType": 5126
		},
		{
			"bufferView": 18,
			"count": 12964,
			"type": "VEC2",
			"componentType": 5126
		},
		{
			"bufferView": 19,
			"count": 12964,
			"type": "VEC2",
			"componentType": 5126
		}
	],
	"buffers": [
		{
			"uri": "SK_Cartoon_18.bin",
			"byteLength": 2620228
		}
	],
	"bufferViews": [
		{
			"buffer": 0,
			"byteLength": 97662,
			"target": 34963
		},
		{
			"buffer": 0,
			"byteLength": 177000,
			"byteOffset": 97664,
			"target": 34962
		},
		{
			"buffer": 0,
			"byteLength": 177000,
			"byteOffset": 274664,
			"target": 34962
		},
		{
			"buffer": 0,
			"byteLength": 236000,
			"byteOffset": 451664,
			"target": 34962
		},
		{
			"buffer": 0,
			"byteLength": 118000,
			"byteOffset": 687664,
			"target": 34962
		},
		{
			"buffer": 0,
			"byteLength": 118000,
			"byteOffset": 805664,
			"target": 34962
		},
		{
			"buffer": 0,
			"byteLength": 118000,
			"byteOffset": 923664,
			"target": 34962
		},
		{
			"buffer": 0,
			"byteLength": 118000,
			"byteOffset": 1041664,
			"target": 34962
		},
		{
			"buffer": 0,
			"byteLength": 118000,
			"byteOffset": 1159664,
			"target": 34962
		},
		{
			"buffer": 0,
			"byteLength": 118000,
			"byteOffset": 1277664,
			"target": 34962
		},
		{
			"buffer": 0,
			"byteLength": 83730,
			"byteOffset": 1395664,
			"target": 34963
		},
		{
			"buffer": 0,
			"byteLength": 155568,
			"byteOffset": 1479396,
			"target": 34962
		},
		{
			"buffer": 0,
			"byteLength": 155568,
			"byteOffset": 1634964,
			"target": 34962
		},
		{
			"buffer": 0,
			"byteLength": 207424,
			"byteOffset": 1790532,
			"target": 34962
		},
		{
			"buffer": 0,
			"byteLength": 103712,
			"byteOffset": 1997956,
			"target": 34962
		},
		{
			"buffer": 0,
			"byteLength": 103712,
			"byteOffset": 2101668,
			"target": 34962
		},
		{
			"buffer": 0,
			"byteLength": 103712,
			"byteOffset": 2205380,
			"target": 34962
		},
		{
			"buffer": 0,
			"byteLength": 103712,
			"byteOffset": 2309092,
			"target": 34962
		},
		{
			"buffer": 0,
			"byteLength": 103712,
			"byteOffset": 2412804,
			"target": 34962
		},
		{
			"buffer": 0,
			"byteLength": 103712,
			"byteOffset": 2516516,
			"target": 34962
		}
	],
	"images": [
		{
			"uri": "SK_Cartoon_Female_018.png"
		}
	],
	"materials": [
		{
			"name": "MI_Cartoon_Female_018",
			"pbrMetallicRoughness":
			{
				"baseColorTexture":
				{
					"index": 0
				}
			},
			"alphaMode": "MASK",
			"alphaCutoff": 0.333299994,
			"extensions":
			{
				"KHR_materials_unlit":
				{
				}
			}
		},
		{
			"name": "NewMaterial",
			"pbrMetallicRoughness":
			{
				"baseColorFactor": [ 0,
					0,
					0,
					1
				]
			},
			"extensions":
			{
				"KHR_materials_unlit":
				{
				}
			}
		}
	],
	"meshes": [
		{
			"name": "SK_Cartoon_Female_018_Pose",
			"primitives": [
				{
					"attributes":
					{
						"POSITION": 1,
						"NORMAL": 2,
						"TANGENT": 3,
						"TEXCOORD_0": 4,
						"TEXCOORD_1": 5,
						"TEXCOORD_2": 6,
						"TEXCOORD_3": 7,
						"TEXCOORD_4": 8,
						"TEXCOORD_5": 9
					},
					"indices": 0,
					"material": 0
				},
				{
					"attributes":
					{
						"POSITION": 11,
						"NORMAL": 12,
						"TANGENT": 13,
						"TEXCOORD_0": 14,
						"TEXCOORD_1": 15,
						"TEXCOORD_2": 16,
						"TEXCOORD_3": 17,
						"TEXCOORD_4": 18,
						"TEXCOORD_5": 19
					},
					"indices": 10,
					"material": 1
				}
			]
		}
	],
	"nodes": [
		{
			"name": "SK_Cartoon_Female_018_Pose_14_StaticMeshComponent0",
			"mesh": 0
		}
	],
	"samplers": [
		{
			"name": "SK_Cartoon_Female_018",
			"minFilter": 9987,
			"magFilter": 9729
		}
	],
	"scenes": [
		{
			"name": "Untitled_1",
			"nodes": [ 0 ]
		}
	],
	"textures": [
		{
			"name": "SK_Cartoon_Female_018",
			"sampler": 0,
			"source": 0
		}
	],
	"extensionsUsed": [
		"KHR_materials_unlit"
	]
}