{
	"asset":
	{
		"version": "2.0",
		"generator": "Unreal Engine 4.27.0 glTF Exporter 1.0.6"
	},
	"scene": 0,
	"accessors": [
		{
			"bufferView": 0,
			"count": 51990,
			"type": "SCALAR",
			"componentType": 5123
		},
		{
			"bufferView": 1,
			"count": 16194,
			"type": "VEC3",
			"componentType": 5126,
			"min": [ -0.42512542,
				-0.00122544239,
				-0.359871119
			],
			"max": [ 0.235416502,
				1.75272667,
				0.221081078
			]
		},
		{
			"bufferView": 2,
			"count": 16194,
			"type": "VEC3",
			"componentType": 5126
		},
		{
			"bufferView": 3,
			"count": 16194,
			"type": "VEC4",
			"componentType": 5126
		},
		{
			"bufferView": 4,
			"count": 16194,
			"type": "VEC2",
			"componentType": 5126
		},
		{
			"bufferView": 5,
			"count": 16194,
			"type": "VEC2",
			"componentType": 5126
		},
		{
			"bufferView": 6,
			"count": 16194,
			"type": "VEC2",
			"componentType": 5126
		},
		{
			"bufferView": 7,
			"count": 16194,
			"type": "VEC2",
			"componentType": 5126
		},
		{
			"bufferView": 8,
			"count": 16194,
			"type": "VEC2",
			"componentType": 5126
		},
		{
			"bufferView": 9,
			"count": 16194,
			"type": "VEC2",
			"componentType": 5126
		},
		{
			"bufferView": 10,
			"count": 48774,
			"type": "SCALAR",
			"componentType": 5123
		},
		{
			"bufferView": 11,
			"count": 15412,
			"type": "VEC3",
			"componentType": 5126,
			"min": [ -0.426825047,
				-0.00236961362,
				-0.362045139
			],
			"max": [ 0.237354234,
				1.75517797,
				0.22399351
			]
		},
		{
			"bufferView": 12,
			"count": 15412,
			"type": "VEC3",
			"componentType": 5126
		},
		{
			"bufferView": 13,
			"count": 15412,
			"type": "VEC4",
			"componentType": 5126
		},
		{
			"bufferView": 14,
			"count": 15412,
			"type": "VEC2",
			"componentType": 5126
		},
		{
			"bufferView": 15,
			"count": 15412,
			"type": "VEC2",
			"componentType": 5126
		},
		{
			"bufferView": 16,
			"count": 15412,
			"type": "VEC2",
			"componentType": 5126
		},
		{
			"bufferView": 17,
			"count": 15412,
			"type": "VEC2",
			"componentType": 5126
		},
		{
			"bufferView": 18,
			"count": 15412,
			"type": "VEC2",
			"componentType": 5126
		},
		{
			"bufferView": 19,
			"count": 15412,
			"type": "VEC2",
			"componentType": 5126
		}
	],
	"buffers": [
		{
			"uri": "SK_Cartoon_52.bin",
			"byteLength": 2982856
		}
	],
	"bufferViews": [
		{
			"buffer": 0,
			"byteLength": 103980,
			"target": 34963
		},
		{
			"buffer": 0,
			"byteLength": 194328,
			"byteOffset": 103980,
			"target": 34962
		},
		{
			"buffer": 0,
			"byteLength": 194328,
			"byteOffset": 298308,
			"target": 34962
		},
		{
			"buffer": 0,
			"byteLength": 259104,
			"byteOffset": 492636,
			"target": 34962
		},
		{
			"buffer": 0,
			"byteLength": 129552,
			"byteOffset": 751740,
			"target": 34962
		},
		{
			"buffer": 0,
			"byteLength": 129552,
			"byteOffset": 881292,
			"target": 34962
		},
		{
			"buffer": 0,
			"byteLength": 129552,
			"byteOffset": 1010844,
			"target": 34962
		},
		{
			"buffer": 0,
			"byteLength": 129552,
			"byteOffset": 1140396,
			"target": 34962
		},
		{
			"buffer": 0,
			"byteLength": 129552,
			"byteOffset": 1269948,
			"target": 34962
		},
		{
			"buffer": 0,
			"byteLength": 129552,
			"byteOffset": 1399500,
			"target": 34962
		},
		{
			"buffer": 0,
			"byteLength": 97548,
			"byteOffset": 1529052,
			"target": 34963
		},
		{
			"buffer": 0,
			"byteLength": 184944,
			"byteOffset": 1626600,
			"target": 34962
		},
		{
			"buffer": 0,
			"byteLength": 184944,
			"byteOffset": 1811544,
			"target": 34962
		},
		{
			"buffer": 0,
			"byteLength": 246592,
			"byteOffset": 1996488,
			"target": 34962
		},
		{
			"buffer": 0,
			"byteLength": 123296,
			"byteOffset": 2243080,
			"target": 34962
		},
		{
			"buffer": 0,
			"byteLength": 123296,
			"byteOffset": 2366376,
			"target": 34962
		},
		{
			"buffer": 0,
			"byteLength": 123296,
			"byteOffset": 2489672,
			"target": 34962
		},
		{
			"buffer": 0,
			"byteLength": 123296,
			"byteOffset": 2612968,
			"target": 34962
		},
		{
			"buffer": 0,
			"byteLength": 123296,
			"byteOffset": 2736264,
			"target": 34962
		},
		{
			"buffer": 0,
			"byteLength": 123296,
			"byteOffset": 2859560,
			"target": 34962
		}
	],
	"images": [
		{
			"uri": "SK_Cartoon_Female_052.png"
		}
	],
	"materials": [
		{
			"name": "MI_Cartoon_Female_052",
			"pbrMetallicRoughness":
			{
				"baseColorTexture":
				{
					"index": 0
				}
			},
			"alphaMode": "MASK",
			"alphaCutoff": 0.333299994,
			"extensions":
			{
				"KHR_materials_unlit":
				{
				}
			}
		},
		{
			"name": "NewMaterial",
			"pbrMetallicRoughness":
			{
				"baseColorFactor": [ 0,
					0,
					0,
					1
				]
			},
			"extensions":
			{
				"KHR_materials_unlit":
				{
				}
			}
		}
	],
	"meshes": [
		{
			"name": "SK_Cartoon_Female_052_Pose",
			"primitives": [
				{
					"attributes":
					{
						"POSITION": 1,
						"NORMAL": 2,
						"TANGENT": 3,
						"TEXCOORD_0": 4,
						"TEXCOORD_1": 5,
						"TEXCOORD_2": 6,
						"TEXCOORD_3": 7,
						"TEXCOORD_4": 8,
						"TEXCOORD_5": 9
					},
					"indices": 0,
					"material": 0
				},
				{
					"attributes":
					{
						"POSITION": 11,
						"NORMAL": 12,
						"TANGENT": 13,
						"TEXCOORD_0": 14,
						"TEXCOORD_1": 15,
						"TEXCOORD_2": 16,
						"TEXCOORD_3": 17,
						"TEXCOORD_4": 18,
						"TEXCOORD_5": 19
					},
					"indices": 10,
					"material": 1
				}
			]
		}
	],
	"nodes": [
		{
			"name": "SK_Cartoon_Female_052_Pose_53_StaticMeshComponent0",
			"mesh": 0
		}
	],
	"samplers": [
		{
			"name": "SK_Cartoon_Female_052",
			"minFilter": 9987,
			"magFilter": 9729
		}
	],
	"scenes": [
		{
			"name": "Untitled_1",
			"nodes": [ 0 ]
		}
	],
	"textures": [
		{
			"name": "SK_Cartoon_Female_052",
			"sampler": 0,
			"source": 0
		}
	],
	"extensionsUsed": [
		"KHR_materials_unlit"
	]
}