{
	"asset":
	{
		"version": "2.0",
		"generator": "Unreal Engine 4.27.0 glTF Exporter 1.0.6"
	},
	"scene": 0,
	"accessors": [
		{
			"bufferView": 0,
			"count": 8331,
			"type": "SCALAR",
			"componentType": 5123
		},
		{
			"bufferView": 1,
			"count": 6405,
			"type": "VEC3",
			"componentType": 5126,
			"min": [ -0.789151013,
				0.141100541,
				-0.967141867
			],
			"max": [ 0.595410764,
				1.94417048,
				0.447701812
			]
		},
		{
			"bufferView": 2,
			"count": 6405,
			"type": "VEC3",
			"componentType": 5126
		},
		{
			"bufferView": 3,
			"count": 6405,
			"type": "VEC4",
			"componentType": 5126
		},
		{
			"bufferView": 4,
			"count": 6405,
			"type": "VEC2",
			"componentType": 5126
		},
		{
			"bufferView": 5,
			"count": 6405,
			"type": "VEC2",
			"componentType": 5126
		},
		{
			"bufferView": 6,
			"count": 6405,
			"type": "VEC2",
			"componentType": 5126
		}
	],
	"buffers": [
		{
			"uri": "SK_Lowpoly_11.bin",
			"byteLength": 426584
		}
	],
	"bufferViews": [
		{
			"buffer": 0,
			"byteLength": 16662,
			"target": 34963
		},
		{
			"buffer": 0,
			"byteLength": 76860,
			"byteOffset": 16664,
			"target": 34962
		},
		{
			"buffer": 0,
			"byteLength": 76860,
			"byteOffset": 93524,
			"target": 34962
		},
		{
			"buffer": 0,
			"byteLength": 102480,
			"byteOffset": 170384,
			"target": 34962
		},
		{
			"buffer": 0,
			"byteLength": 51240,
			"byteOffset": 272864,
			"target": 34962
		},
		{
			"buffer": 0,
			"byteLength": 51240,
			"byteOffset": 324104,
			"target": 34962
		},
		{
			"buffer": 0,
			"byteLength": 51240,
			"byteOffset": 375344,
			"target": 34962
		}
	],
	"images": [
		{
			"uri": "MI_Lowpoly_Male_011_BaseColor.png"
		},
		{
			"uri": "MI_Lowpoly_Male_011_MetallicRoughness.png"
		}
	],
	"materials": [
		{
			"name": "MI_Lowpoly_Male_011",
			"pbrMetallicRoughness":
			{
				"baseColorTexture":
				{
					"index": 0
				},
				"metallicRoughnessTexture":
				{
					"index": 1
				}
			}
		}
	],
	"meshes": [
		{
			"name": "SK_Lowpoly_Male_011_Pose",
			"primitives": [
				{
					"attributes":
					{
						"POSITION": 1,
						"NORMAL": 2,
						"TANGENT": 3,
						"TEXCOORD_0": 4,
						"TEXCOORD_1": 5,
						"TEXCOORD_2": 6
					},
					"indices": 0,
					"material": 0
				}
			]
		}
	],
	"nodes": [
		{
			"name": "SK_Lowpoly_Male_011_Pose_75_StaticMeshComponent0",
			"mesh": 0
		}
	],
	"samplers": [
		{
			"name": "MI_Lowpoly_Male_011_BaseColor",
			"minFilter": 9987,
			"magFilter": 9729
		},
		{
			"name": "MI_Lowpoly_Male_011_MetallicRoughness",
			"minFilter": 9987,
			"magFilter": 9729
		}
	],
	"scenes": [
		{
			"name": "Untitled_1",
			"nodes": [ 0 ]
		}
	],
	"textures": [
		{
			"name": "MI_Lowpoly_Male_011_BaseColor",
			"sampler": 0,
			"source": 0
		},
		{
			"name": "MI_Lowpoly_Male_011_MetallicRoughness",
			"sampler": 1,
			"source": 1
		}
	]
}